<svg xmlns="http://www.w3.org/2000/svg" viewBox="0 0 184 173.01"><defs><style>.cls-1{fill:#00a040;}.cls-2{opacity:0.6;}</style></defs><title>资源 2</title><g id="图层_2" data-name="图层 2"><g id="图层_1-2" data-name="图层 1"><g id="_1ef8eb6b-2ede-4d4b-8793-0f4df74bbb33.psd" data-name="1ef8eb6b-2ede-4d4b-8793-0f4df74bbb33.psd"><g id="AI"><g id="形状_1_拷贝_3" data-name="形状 1 拷贝 3"><path class="cls-1" d="M94.4,71l-2.23,9.18a49.22,49.22,0,0,0,21.68,2.66L111,71Zm8.28-30.62c-.72,0-.94.29-1.15,1.15l-5.19,21.3H109l-5.19-21.3C103.62,40.62,103.4,40.34,102.68,40.34Zm60.51-12.07q-4.69-17.51-21-24.37T106.48,2.25q-22.27,6-32.51,19t-5.42,31q4.1,15.3,14.65,23l9.48-36.07c1.73-6.67,6.92-7.31,10-7.31s8.28.65,10,7.31l11,42c1.16-.26,2.34-.54,3.53-.86V47.94a1.44,1.44,0,0,1,1.44-1.43h6.63a1.44,1.44,0,0,1,1.44,1.43V77.28Q151.57,71.39,158.9,61,168.36,47.54,163.19,28.26ZM137,39.69a1.44,1.44,0,0,1-1.44,1.43h-7A1.51,1.51,0,0,1,127,39.69V33.38a1.51,1.51,0,0,1,1.51-1.43h7A1.44,1.44,0,0,1,137,33.38Z"/></g><g id="形状_1_拷贝_11" data-name="形状 1 拷贝 11"><path class="cls-1" d="M18.67,122.13a.85.85,0,0,0,.76.68h4.26a.69.69,0,0,0,.72-.68l0-.2-6.58-25.2c-1-3.74-3.85-4.1-5.58-4.1s-4.62.36-5.58,4.1L0,121.93l0,.2a.69.69,0,0,0,.72.68H5a.85.85,0,0,0,.76-.68l1.85-7.64h9.24Zm-10-12.22L11.56,98c.12-.48.24-.64.64-.64s.52.16.64.64l2.89,11.94ZM44.53,113V110c0-6.27-3.13-10.09-9.6-10.09a34.2,34.2,0,0,0-8.07,1c-.92.24-1.08.48-1.08,1.09v28a.81.81,0,0,0,.8.8h3.69a.81.81,0,0,0,.8-.8v-7.11a30.37,30.37,0,0,0,3.85.28C41.4,123.14,44.53,119.32,44.53,113Zm-13.45-8.56a23.34,23.34,0,0,1,3.85-.28c3.45,0,4.3,2.45,4.3,5.75V113c0,3.3-.84,5.75-4.3,5.75a33.47,33.47,0,0,1-3.85-.28ZM65.68,113V110c0-6.27-3.13-10.09-9.6-10.09a34.18,34.18,0,0,0-8.07,1c-.92.24-1.08.48-1.08,1.09v28a.81.81,0,0,0,.8.8h3.69a.81.81,0,0,0,.8-.8v-7.11a30.37,30.37,0,0,0,3.85.28C62.55,123.14,65.68,119.32,65.68,113Zm-5.3,0c0,3.3-.84,5.75-4.3,5.75a33.47,33.47,0,0,1-3.85-.28v-14a23.34,23.34,0,0,1,3.85-.28c3.45,0,4.3,2.45,4.3,5.75Zm8.71,9.77h3.73a.81.81,0,0,0,.76-.84V93a.77.77,0,0,0-.76-.8H69.09a.81.81,0,0,0-.8.8V122A.84.84,0,0,0,69.09,122.82Zm8.75-25.68h3.89a.81.81,0,0,0,.8-.8V92.79a.81.81,0,0,0-.8-.8H77.85a.84.84,0,0,0-.84.8v3.54A.84.84,0,0,0,77.85,97.13Zm3.77,3H77.93a.81.81,0,0,0-.8.8v21a.84.84,0,0,0,.8.84h3.69a.84.84,0,0,0,.8-.84V101A.81.81,0,0,0,81.62,100.15Zm18.51,21.42V119c0-.4-.32-.6-.72-.6h-.12a34.5,34.5,0,0,1-5.18.28c-1.89,0-3.85-1.09-3.85-5.27v-3.74c0-4.18,2-5.27,3.85-5.27a34.5,34.5,0,0,1,5.18.28h.12c.4,0,.72-.2.72-.6v-2.61c0-.64-.16-.88-.84-1a22,22,0,0,0-5.18-.52c-5.22,0-9.15,3.22-9.15,9.77v3.74c0,6.55,3.93,9.77,9.15,9.77a22,22,0,0,0,5.18-.52C100,122.45,100.13,122.21,100.13,121.57Zm10.36-21.7a34.61,34.61,0,0,0-6.71.64c-.52.12-.76.4-.76.84v2.57c0,.56.32.68.72.68h.2a63.34,63.34,0,0,1,6.54-.32c2.37,0,3.53.64,3.53,3.26v1.77h-2.53c-7,0-9.8,2.37-9.8,7v.16c0,5.43,3.61,6.71,6.95,6.71a10.88,10.88,0,0,0,5.66-1.77V122a.81.81,0,0,0,.8.8h3.41a.81.81,0,0,0,.8-.8V107.54C119.32,102.4,116.19,99.87,110.49,99.87ZM114,117.79a8.79,8.79,0,0,1-4.1,1.13c-2,0-2.89-.52-2.89-2.49v-.16c0-2.25.8-3.42,4.46-3.42H114ZM133.21,119h-2.13c-1.44,0-1.57-.24-1.57-2.25V104.13h3.61a.81.81,0,0,0,.8-.8V101a.81.81,0,0,0-.8-.8h-3.61V96a.58.58,0,0,0-.64-.6h-.16L125,96a.86.86,0,0,0-.8.8v3.3H120.4a.81.81,0,0,0-.8.8v1.81a.86.86,0,0,0,.8.8l3.77.56v12.62c0,5.39,1.85,6.39,6.38,6.39a16.57,16.57,0,0,0,2.73-.28c.52-.08.76-.32.76-.72V119.6C134.05,119.2,133.73,119,133.21,119Zm7.19-27h-3.9a.84.84,0,0,0-.84.8v3.54a.84.84,0,0,0,.84.8h3.9a.81.81,0,0,0,.8-.8V92.79A.81.81,0,0,0,140.4,92Zm-.12,8.16h-3.69a.81.81,0,0,0-.8.8v21a.84.84,0,0,0,.8.84h3.69a.84.84,0,0,0,.8-.84V101A.81.81,0,0,0,140.27,100.15Zm13-.28c-6.3,0-9.6,4.26-9.6,10v3.26c0,5.75,3.29,10,9.6,10s9.6-4.26,9.6-10v-3.26C162.92,104.13,159.63,99.87,153.32,99.87Zm4.3,13.26c0,3.3-1.49,5.43-4.3,5.43s-4.3-2.13-4.3-5.43v-3.26c0-3.3,1.49-5.43,4.3-5.43s4.3,2.13,4.3,5.43Zm19.43-13.26a10.4,10.4,0,0,0-6.5,1.93V101a.81.81,0,0,0-.8-.8h-3.49a.81.81,0,0,0-.8.8v21a.84.84,0,0,0,.8.84h3.69a.84.84,0,0,0,.8-.84V105.81a10.21,10.21,0,0,1,4.54-1.45c3.09,0,3.41,1,3.41,4.5V122a.84.84,0,0,0,.8.84h3.69a.84.84,0,0,0,.8-.84v-13.1C184,103.76,182.83,99.87,177.05,99.87ZM6.76,135h-4a.77.77,0,0,0-.8.76V164a.81.81,0,0,0,.8.8h4a.8.8,0,0,0,.8-.8V135.72A.77.77,0,0,0,6.76,135Zm16,6.92a10.33,10.33,0,0,0-6.48,1.93V143a.8.8,0,0,0-.8-.8H12a.8.8,0,0,0-.8.8v21a.84.84,0,0,0,.8.84h3.68a.84.84,0,0,0,.8-.84V147.83A10.14,10.14,0,0,1,21,146.38c3.08,0,3.4,1,3.4,4.51V164a.84.84,0,0,0,.8.84h3.68a.84.84,0,0,0,.8-.84V150.88C29.65,145.78,28.49,141.87,22.73,141.87Zm21.45,10.9-5.24-3.22c-1-.6-1.6-1-1.6-1.65,0-1.25.84-1.69,2.76-1.69a58.63,58.63,0,0,1,6.6.48h.16c.4,0,.64-.28.64-.76V143.6a.88.88,0,0,0-.72-.93,29.51,29.51,0,0,0-7.12-.8c-5.08,0-7.6,2-7.6,6a6.63,6.63,0,0,0,3.36,5.55l5.48,3.38c1.28.8,1.76,1.29,1.76,2.05,0,1.09-.36,1.93-2.84,1.93-1.2,0-4.8-.2-6.72-.44h-.16a.67.67,0,0,0-.68.64v2.41a.91.91,0,0,0,.76.93,33,33,0,0,0,7.16.8c5.24,0,7.84-2.78,7.84-6.27C48,156.84,47.54,154.83,44.17,152.77ZM55,142.16H51.33a.81.81,0,0,0-.8.8v21a.84.84,0,0,0,.8.84H55a.84.84,0,0,0,.8-.84V143A.8.8,0,0,0,55,142.16Zm.12-8.17H51.26a.84.84,0,0,0-.84.8v3.54a.84.84,0,0,0,.84.8h3.88a.8.8,0,0,0,.8-.8v-3.54A.8.8,0,0,0,55.14,134Zm22.57,8.17H68.34c-6.92,0-9.53,3.38-9.53,7.4v.28a6.22,6.22,0,0,0,1.64,4.71,3.94,3.94,0,0,0-1.6,3.26v0a4.68,4.68,0,0,0,1.8,3.7,6.05,6.05,0,0,0-2,4.42v.36c0,4.22,3.44,6.68,9.93,6.68,6.8,0,9.8-2.21,9.8-6.32v-.28c0-4.3-3.52-5.15-9-6.44l-4.72-1.13c-.92-.2-1.36-.52-1.36-1.33a1.28,1.28,0,0,1,.68-1,12,12,0,0,0,4.36.68c6,0,9.48-2.29,9.48-7.32v-.28a5.14,5.14,0,0,0-1-3.22l1.32-.52c.48-.2.64-.28.64-.89v-1.69A1.08,1.08,0,0,0,77.71,142.16ZM63.78,166a4,4,0,0,1,1-2.82l3.56.85c4.2,1,4.72,1.53,4.72,2.41v.28c0,1.45-.68,2.29-4.52,2.29s-4.76-1-4.76-2.65Zm8.84-16c0,2-1,3.18-4.28,3.18-3.72,0-4.32-1.69-4.32-3.18v-.32c0-1.89.92-3.42,4.32-3.42s4.28,1.49,4.28,3.42Zm19.21-8.08a10.69,10.69,0,0,0-6,1.49V135a.81.81,0,0,0-.8-.8H81.31a.8.8,0,0,0-.8.8v29a.84.84,0,0,0,.8.84H85a.84.84,0,0,0,.8-.84V147.75a10.36,10.36,0,0,1,4.64-1.37c2.68,0,3.28.89,3.28,4.38V164a.84.84,0,0,0,.8.84h3.68A.84.84,0,0,0,99,164V150.76C99,145.82,97.35,141.87,91.83,141.87ZM113.16,161H111c-1.44,0-1.56-.24-1.56-2.25V146.14h3.6a.8.8,0,0,0,.8-.8V143a.8.8,0,0,0-.8-.8h-3.6V138a.58.58,0,0,0-.64-.6h-.16l-3.72.64a.86.86,0,0,0-.8.8v3.3h-3.76a.81.81,0,0,0-.8.8v1.81a.86.86,0,0,0,.8.8l3.76.56v12.63c0,5.39,1.84,6.4,6.36,6.4a16.46,16.46,0,0,0,2.72-.28c.52-.08.76-.32.76-.72v-2.53C114,161.22,113.68,161,113.16,161Z"/></g><g id="形状_1_拷贝_7" data-name="形状 1 拷贝 7" class="cls-2"><path class="cls-1" d="M7.08,69C4.14,69,2,70.72,2,74.76v2.48C2,81.28,4.14,83,7.08,83s5.07-1.69,5.07-5.73V74.76C12.15,70.72,10,69,7.08,69Zm2.58,8.21c0,2.42-.84,3.51-2.58,3.51S4.5,79.66,4.5,77.24V74.76c0-2.42.84-3.51,2.58-3.51s2.58,1.08,2.58,3.51ZM23.23,69H21.7a.33.33,0,0,0-.34.35l0,10c0,.11-.05.17-.09.17s-.11-.06-.14-.15L17,69.62c-.21-.48-.41-.59-.78-.59H14.28a.73.73,0,0,0-.71.73l0,12.86a.36.36,0,0,0,.36.37h1.51a.35.35,0,0,0,.34-.37l0-9.55c0-.11,0-.15.09-.15s.11,0,.16.15L20,82.33A1,1,0,0,0,21,83h1.8a.73.73,0,0,0,.71-.73l0-12.88A.33.33,0,0,0,23.23,69Zm9.61.26A16.27,16.27,0,0,0,29.46,69c-2.31,0-4.11.64-4.11,3.77V79.2c0,3.12,1.8,3.77,4.11,3.77a16.27,16.27,0,0,0,3.38-.26c.27,0,.36-.13.36-.39V81.15a.36.36,0,0,0-.36-.37H29.21c-1,0-1.41-.37-1.41-1.58V76.83h4.82a.36.36,0,0,0,.36-.37V75.15a.36.36,0,0,0-.36-.37H27.81v-2c0-1.21.37-1.58,1.41-1.58h3.63a.36.36,0,0,0,.36-.37V69.67C33.2,69.41,33.11,69.32,32.84,69.29ZM41.6,70.9A2.29,2.29,0,0,0,39.12,69a2.29,2.29,0,0,0-2.47,1.87L33.73,82.59l0,.09A.31.31,0,0,0,34,83h1.89a.38.38,0,0,0,.34-.31l.82-3.49h4.09L42,82.68a.38.38,0,0,0,.34.31h1.89a.31.31,0,0,0,.32-.31l0-.09Zm-4,6.2,1.28-5.63c.05-.22.11-.29.28-.29s.23.07.28.29l1.28,5.63ZM49.36,69a23.55,23.55,0,0,0-3.49.24c-.36.06-.57.18-.57.55V82.63a.36.36,0,0,0,.36.37h1.78a.35.35,0,0,0,.34-.37v-5c.41,0,1.12.07,1.58.07,2.74,0,5.12-1,5.12-4.3v-.17C54.48,70,52.1,69,49.36,69ZM52,73.42c0,1.47-.75,2.2-2.67,2.2-.3,0-1.3,0-1.58-.05V71.2c.32,0,1.21-.07,1.58-.07,1.78,0,2.67.59,2.67,2.13ZM66.27,69H64.82a.75.75,0,0,0-.66.44l-2.69,5.62c-.09.17-.12.26-.2.26s-.11-.09-.2-.26l-2.69-5.62a.75.75,0,0,0-.66-.44H56.28a.73.73,0,0,0-.71.73v13a.27.27,0,0,0,.3.28h1.8c.16,0,.28-.18.28-.37V73.75c0-.13,0-.18.05-.18l.09.11,1.73,3.51a.64.64,0,0,0,.57.31h1.8a.64.64,0,0,0,.57-.31l1.71-3.51.09-.11s.05.05.05.18v8.87c0,.18.12.37.28.37h1.8a.27.27,0,0,0,.3-.28v-13A.73.73,0,0,0,66.27,69Z"/></g></g></g></g></g></svg>