<svg id="图层_1" data-name="图层 1" xmlns="http://www.w3.org/2000/svg" viewBox="0 0 219.25 180.06"><defs><style>.cls-1{opacity:0.6;}.cls-2,.cls-3{fill:#2ba1cb;}.cls-3{fill-rule:evenodd;}</style></defs><title>cpt</title><g id="_编组_" data-name="&lt;编组&gt;"><g id="_5f8ad069-0257-44c4-8c83-49b61449262d.psd" data-name="5f8ad069-0257-44c4-8c83-49b61449262d.psd"><g id="MI"><g id="形状_1_拷贝_5" data-name="形状 1 拷贝 5" class="cls-1"><path class="cls-2" d="M38.53,102.63c-2.89,0-5,1.66-5,5.64v2.44c0,4,2.1,5.64,5,5.64s5-1.66,5-5.64v-2.44C43.53,104.29,41.42,102.63,38.53,102.63Zm2.54,8.09c0,2.39-.82,3.46-2.54,3.46S36,113.1,36,110.71v-2.44c0-2.39.82-3.46,2.54-3.46s2.54,1.07,2.54,3.46Zm13.38-8.09H52.94a.33.33,0,0,0-.33.34l0,9.82c0,.11-.05.16-.09.16s-.11-.05-.14-.14l-4.07-9.61c-.21-.47-.4-.58-.77-.58H45.63a.71.71,0,0,0-.7.72l0,12.66a.36.36,0,0,0,.35.36h1.49a.34.34,0,0,0,.33-.36l0-9.41c0-.11,0-.14.09-.14s.11,0,.16.14l3.87,9.12a.94.94,0,0,0,1.07.65h1.77a.71.71,0,0,0,.7-.72l0-12.68A.33.33,0,0,0,54.45,102.63Zm9.47.25a16,16,0,0,0-3.33-.25c-2.28,0-4,.63-4,3.71v6.31c0,3.08,1.77,3.71,4,3.71a16,16,0,0,0,3.33-.25c.26,0,.35-.13.35-.38v-1.16a.36.36,0,0,0-.35-.36H60.34c-1,0-1.39-.36-1.39-1.56v-2.33h4.75a.36.36,0,0,0,.35-.36v-1.3a.36.36,0,0,0-.35-.36H59v-2c0-1.19.37-1.56,1.39-1.56h3.58a.36.36,0,0,0,.35-.36v-1.16C64.27,103,64.18,102.92,63.92,102.88Zm8.63,1.59a2.53,2.53,0,0,0-4.87,0L64.8,116l0,.09a.3.3,0,0,0,.32.31H67a.38.38,0,0,0,.33-.31l.81-3.44h4l.81,3.44a.38.38,0,0,0,.33.31h1.86a.3.3,0,0,0,.32-.31l0-.09Zm-4,6.1L69.83,105c.05-.22.11-.29.28-.29s.23.07.28.29l1.26,5.54Zm11.63-8a23.22,23.22,0,0,0-3.44.24c-.35.05-.56.18-.56.54V116a.36.36,0,0,0,.35.36h1.75a.34.34,0,0,0,.33-.36v-4.91c.4,0,1.1.07,1.56.07,2.7,0,5-1,5-4.23v-.16C85.24,103.59,82.89,102.61,80.19,102.61ZM82.82,107c0,1.45-.74,2.17-2.63,2.17-.3,0-1.28,0-1.56-.05v-4.31c.32,0,1.19-.07,1.56-.07,1.75,0,2.63.58,2.63,2.1Zm14-4.34H95.43a.74.74,0,0,0-.65.43l-2.65,5.54c-.09.16-.12.25-.19.25s-.11-.09-.19-.25L89.1,103a.74.74,0,0,0-.65-.43H87a.71.71,0,0,0-.7.72v12.77a.27.27,0,0,0,.3.27h1.77c.16,0,.28-.18.28-.36v-8.74c0-.13,0-.18.05-.18l.09.11,1.7,3.46a.63.63,0,0,0,.56.31h1.77a.63.63,0,0,0,.56-.31l1.68-3.46.09-.11s.05.05.05.18V116c0,.18.12.36.28.36h1.77a.27.27,0,0,0,.3-.27V103.34A.71.71,0,0,0,96.86,102.61Z" transform="translate(-31.46 -58.23)"/></g></g></g><g id="_编组_2" data-name="&lt;编组&gt;"><path id="_复合路径_" data-name="&lt;复合路径&gt;" class="cls-2" d="M51.12,155.28a30.11,30.11,0,0,1-6.3.64c-4.79,0-11.29-2.35-11.29-12.21v-5.86c0-10,6.5-12.21,11.29-12.21a30.16,30.16,0,0,1,6.3.64c.52.16.88.36.88.92v2.67c0,.48-.2.84-.8.84h-.08c-1.4-.12-4.11-.32-6.22-.32-3.35,0-5.79,1.8-5.79,7.46v5.86c0,5.55,2.43,7.46,5.79,7.46,2.11,0,4.83-.2,6.22-.32h.08c.6,0,.8.36.8.84v2.67C52,154.92,51.64,155.12,51.12,155.28Z" transform="translate(-31.46 -58.23)"/><path id="_复合路径_2" data-name="&lt;复合路径&gt;" class="cls-2" d="M59,155.6H55.31a.84.84,0,0,1-.8-.84V126a.8.8,0,0,1,.8-.8H59a.77.77,0,0,1,.76.8v28.72A.8.8,0,0,1,59,155.6Z" transform="translate(-31.46 -58.23)"/><path id="_复合路径_3" data-name="&lt;复合路径&gt;" class="cls-2" d="M71.95,155.92c-6.26,0-9.53-4.23-9.53-9.93v-3.23c0-5.7,3.27-9.93,9.53-9.93s9.53,4.23,9.53,9.93V146C81.48,151.69,78.21,155.92,71.95,155.92Zm4.27-13.17c0-3.27-1.48-5.39-4.27-5.39s-4.27,2.11-4.27,5.39V146c0,3.27,1.48,5.39,4.27,5.39s4.27-2.11,4.27-5.39Z" transform="translate(-31.46 -58.23)"/><path id="_复合路径_4" data-name="&lt;复合路径&gt;" class="cls-2" d="M101.55,155.6H97.88a.8.8,0,0,1-.8-.8v-.92a10.29,10.29,0,0,1-6.26,2,6.8,6.8,0,0,1-4.91-1.68c-1.48-1.48-2-3.95-2-7.26v-13a.84.84,0,0,1,.8-.84h3.67a.84.84,0,0,1,.8.84v13c0,2,.16,3.15.92,3.83a3.46,3.46,0,0,0,2.47.72,11.27,11.27,0,0,0,4.51-1.6v-16a.84.84,0,0,1,.8-.84h3.67a.84.84,0,0,1,.8.84V154.8A.8.8,0,0,1,101.55,155.6Z" transform="translate(-31.46 -58.23)"/><path id="_复合路径_5" data-name="&lt;复合路径&gt;" class="cls-2" d="M122.21,154.88a34,34,0,0,1-8,1c-6.42,0-9.53-3.79-9.53-10v-3.07c0-6.22,3.11-10,9.53-10a30.14,30.14,0,0,1,3.83.28V126a.8.8,0,0,1,.8-.8h3.67a.8.8,0,0,1,.8.8V153.8C123.29,154.4,123.13,154.64,122.21,154.88ZM118,137.41a33.32,33.32,0,0,0-3.83-.28c-3.43,0-4.27,2.43-4.27,5.71v3.07c0,3.27.84,5.71,4.27,5.71a23.23,23.23,0,0,0,3.83-.28Z" transform="translate(-31.46 -58.23)"/><path class="cls-2" d="M42.79,185.74c-1.06,0-2.69-.12-3.63-.16v10.64a.78.78,0,0,1-.77.82H34.32a.82.82,0,0,1-.81-.82v-28c0-.82.49-1.1,1.3-1.22a55.74,55.74,0,0,1,8-.53c6.28,0,11.74,2.2,11.74,9.41v.37C54.53,183.42,49.07,185.74,42.79,185.74Zm6.11-9.9c0-3.42-2-4.73-6.11-4.73-.86,0-2.89.08-3.63.16V181c.65,0,2.93.12,3.63.12,4.4,0,6.11-1.63,6.11-4.89Z" transform="translate(-31.46 -58.23)"/><path class="cls-2" d="M74.09,187.41H60.81v.12c0,2.36,1,5.18,4.89,5.18,3,0,5.79-.25,7.5-.41h.12c.41,0,.73.2.73.61v2.69c0,.65-.12.94-.86,1.06a36.2,36.2,0,0,1-7.91.69c-4.08,0-9.86-2.2-9.86-10.23v-3c0-6.36,3.55-10.35,9.78-10.35s9.7,4.28,9.7,10.35v2.28C74.91,187,74.67,187.41,74.09,187.41Zm-4.61-4c0-3.18-1.75-5-4.28-5s-4.36,1.79-4.36,5v.16h8.64Z" transform="translate(-31.46 -58.23)"/><path class="cls-2" d="M88.48,178.32a11.55,11.55,0,0,0-5.62,1.47v16.38A.85.85,0,0,1,82,197H78.29a.85.85,0,0,1-.82-.86V174.86a.82.82,0,0,1,.82-.82h3.55a.82.82,0,0,1,.82.82v.86a9.48,9.48,0,0,1,5.83-2,.82.82,0,0,1,.82.82v2.93A.82.82,0,0,1,88.48,178.32Z" transform="translate(-31.46 -58.23)"/><path class="cls-2" d="M105,169.6h-1.83c-2,0-2.4.45-2.4,2.45v2h3.91a.82.82,0,0,1,.82.82v2.45a.78.78,0,0,1-.82.77h-3.91v18.09a.85.85,0,0,1-.82.86H96.2a.89.89,0,0,1-.86-.86V178.08l-3.63-.57c-.45-.08-.82-.33-.82-.77v-1.87a.82.82,0,0,1,.82-.82h3.63v-2c0-5.26,2.81-6.52,7.05-6.52a10.73,10.73,0,0,1,2.44.33c.33.08.73.28.73.65v2.4A.62.62,0,0,1,105,169.6Z" transform="translate(-31.46 -58.23)"/><path class="cls-2" d="M115,197.35c-6.4,0-9.74-4.32-9.74-10.15v-3.3c0-5.83,3.34-10.15,9.74-10.15s9.74,4.32,9.74,10.15v3.3C124.77,193,121.43,197.35,115,197.35Zm4.36-13.45c0-3.34-1.51-5.5-4.36-5.5s-4.36,2.16-4.36,5.5v3.3c0,3.34,1.51,5.5,4.36,5.5s4.36-2.16,4.36-5.5Z" transform="translate(-31.46 -58.23)"/><path class="cls-2" d="M138.35,178.32a11.55,11.55,0,0,0-5.62,1.47v16.38a.85.85,0,0,1-.82.86h-3.75a.85.85,0,0,1-.82-.86V174.86a.82.82,0,0,1,.82-.82h3.55a.82.82,0,0,1,.82.82v.86a9.48,9.48,0,0,1,5.83-2,.82.82,0,0,1,.82.82v2.93A.82.82,0,0,1,138.35,178.32Z" transform="translate(-31.46 -58.23)"/><path class="cls-2" d="M169,197h-3.75a.85.85,0,0,1-.82-.86V182.32c0-3.14-.65-4-2.93-4a8.9,8.9,0,0,0-3.79,1,22.26,22.26,0,0,1,.16,2.93v13.86a.85.85,0,0,1-.81.86h-3.75a.85.85,0,0,1-.82-.86V182.32c0-3.14-.53-4-2.81-4a9,9,0,0,0-3.75,1.34v16.47a.85.85,0,0,1-.82.86h-3.75a.85.85,0,0,1-.82-.86V174.86a.82.82,0,0,1,.82-.82H145a.82.82,0,0,1,.82.82v.86a10.19,10.19,0,0,1,5.83-2c2.32,0,3.83.69,4.77,1.83a12.74,12.74,0,0,1,6.73-1.83c5.54,0,6.77,3.79,6.77,8.56v13.86A.85.85,0,0,1,169,197Z" transform="translate(-31.46 -58.23)"/><path class="cls-2" d="M189.34,197h-3.46a.82.82,0,0,1-.82-.82v-.65a11,11,0,0,1-5.75,1.79c-3.38,0-7.05-1.3-7.05-6.81v-.16c0-4.65,2.85-7,9.94-7h2.57v-1.79c0-2.65-1.18-3.3-3.59-3.3a64.17,64.17,0,0,0-6.64.33h-.2c-.41,0-.73-.12-.73-.69v-2.61c0-.45.24-.73.77-.86a35.14,35.14,0,0,1,6.81-.65c5.79,0,9,2.57,9,7.78v14.67A.82.82,0,0,1,189.34,197Zm-4.57-10.11H182.2c-3.71,0-4.52,1.18-4.52,3.46v.16c0,2,.9,2.53,2.93,2.53a8.93,8.93,0,0,0,4.16-1.14Z" transform="translate(-31.46 -58.23)"/><path class="cls-2" d="M211.43,197h-3.75a.85.85,0,0,1-.82-.86V182.89c0-3.55-.33-4.56-3.46-4.56a10.38,10.38,0,0,0-4.61,1.47v16.38a.85.85,0,0,1-.82.86h-3.75a.85.85,0,0,1-.82-.86V174.86a.82.82,0,0,1,.82-.82h3.55a.82.82,0,0,1,.82.82v.86a10.56,10.56,0,0,1,6.6-2c5.87,0,7.05,4,7.05,9.13v13.29A.85.85,0,0,1,211.43,197Z" transform="translate(-31.46 -58.23)"/><path class="cls-2" d="M229.24,196.82a22.35,22.35,0,0,1-5.26.53c-5.3,0-9.29-3.26-9.29-9.9v-3.79c0-6.64,4-9.9,9.29-9.9a22.35,22.35,0,0,1,5.26.53c.69.16.86.41.86,1.06V178c0,.41-.33.61-.73.61h-.12a34.94,34.94,0,0,0-5.26-.29c-1.91,0-3.91,1.1-3.91,5.34v3.79c0,4.24,2,5.34,3.91,5.34a34.94,34.94,0,0,0,5.26-.29h.12c.41,0,.73.2.73.61v2.65C230.09,196.42,229.93,196.66,229.24,196.82Z" transform="translate(-31.46 -58.23)"/><path class="cls-2" d="M249.9,187.41H236.62v.12c0,2.36,1,5.18,4.89,5.18,3,0,5.79-.25,7.5-.41h.12c.41,0,.73.2.73.61v2.69c0,.65-.12.94-.86,1.06a36.18,36.18,0,0,1-7.91.69c-4.08,0-9.86-2.2-9.86-10.23v-3c0-6.36,3.55-10.35,9.78-10.35s9.7,4.28,9.7,10.35v2.28C250.72,187,250.47,187.41,249.9,187.41Zm-4.61-4c0-3.18-1.75-5-4.28-5s-4.36,1.79-4.36,5v.16h8.64Z" transform="translate(-31.46 -58.23)"/><path class="cls-2" d="M52.21,212.41H45.07v24.74a.82.82,0,0,1-.82.82h-4a.82.82,0,0,1-.82-.82V212.41H32.28a.75.75,0,0,1-.82-.73v-3.22a.78.78,0,0,1,.82-.77H52.21a.78.78,0,0,1,.82.77v3.22A.75.75,0,0,1,52.21,212.41Z" transform="translate(-31.46 -58.23)"/><path class="cls-2" d="M69.77,228.34H56.49v.12c0,2.36,1,5.18,4.89,5.18,3,0,5.79-.25,7.5-.41H69c.41,0,.73.2.73.61v2.69c0,.65-.12.94-.86,1.06a36.2,36.2,0,0,1-7.91.69c-4.08,0-9.86-2.2-9.86-10.23v-3c0-6.36,3.55-10.35,9.78-10.35s9.7,4.28,9.7,10.35v2.28C70.59,228,70.34,228.34,69.77,228.34Zm-4.61-4c0-3.18-1.75-5-4.28-5s-4.36,1.79-4.36,5v.16h8.64Z" transform="translate(-31.46 -58.23)"/><path class="cls-2" d="M80.62,238.28a33.74,33.74,0,0,1-7.3-.82.92.92,0,0,1-.77-.94v-2.44a.68.68,0,0,1,.69-.65h.16c2,.24,5.62.45,6.85.45,2.53,0,2.89-.86,2.89-2,0-.77-.49-1.26-1.79-2.08l-5.58-3.42a6.72,6.72,0,0,1-3.42-5.62c0-4.08,2.57-6.11,7.74-6.11a30.21,30.21,0,0,1,7.25.82.89.89,0,0,1,.73.94v2.36c0,.49-.24.77-.65.77h-.16a60.14,60.14,0,0,0-6.72-.49c-2,0-2.81.45-2.81,1.71,0,.65.61,1.06,1.63,1.67l5.34,3.26c3.42,2.08,3.91,4.12,3.91,6.19C88.6,235.47,86,238.28,80.62,238.28Z" transform="translate(-31.46 -58.23)"/><path class="cls-2" d="M102.71,238a16.87,16.87,0,0,1-2.77.29c-4.61,0-6.48-1-6.48-6.48V219l-3.83-.57a.88.88,0,0,1-.82-.82v-1.83a.82.82,0,0,1,.82-.82h3.83v-3.34a.88.88,0,0,1,.82-.82l3.79-.65h.16a.59.59,0,0,1,.65.61V215h3.67a.82.82,0,0,1,.82.82v2.4a.82.82,0,0,1-.82.82H98.88v12.8c0,2,.12,2.28,1.59,2.28h2.16c.53,0,.86.2.86.61v2.57C103.48,237.67,103.24,237.92,102.71,238Z" transform="translate(-31.46 -58.23)"/></g><path class="cls-3" d="M239.84,92.45V86.26a.87.87,0,0,0-1-.9h-.24l-5.59,1a1.29,1.29,0,0,0-1.2,1.2v4.93H226.2a1.21,1.21,0,0,0-1.2,1.2v2.71a1.29,1.29,0,0,0,1.2,1.2l5.65.84v18.89c0,8.06,2.76,9.56,9.55,9.56.41,0,.83,0,1.25-.08q-.59,1-1.24,1.89Q230.54,144.21,205.22,151t-43.46-1.48q-18.15-8.29-24.19-30.91Q132,97.85,143.8,82.78t37.37-22q22.38-6,41.08,1.89t24.1,28.14c.14.53.26,1.06.39,1.59Zm-50.25,28c0-.72-.3-1.26-1.2-1.26h-.12c-2.1.18-6.19.48-9.37.48-5,0-8.71-2.89-8.71-11.25V99.61c0-8.54,3.67-11.25,8.71-11.25,3.18,0,7.27.3,9.37.48h.12c.9,0,1.2-.54,1.2-1.26v-4c0-.84-.54-1.14-1.32-1.38a45.27,45.27,0,0,0-9.49-1c-7.21,0-17,3.31-17,18.4v8.84c0,14.86,9.79,18.4,17,18.4a45.26,45.26,0,0,0,9.49-1c.78-.24,1.32-.54,1.32-1.38Zm33.67-13.35c0-9.38-4.69-15.1-14.36-15.1a51.14,51.14,0,0,0-12.08,1.56c-1.38.36-1.62.72-1.62,1.62v41.86a1.21,1.21,0,0,0,1.2,1.2h5.53a1.21,1.21,0,0,0,1.2-1.2V126.43a45.33,45.33,0,0,0,5.77.42c9.67,0,14.36-5.71,14.36-15.1ZM208.9,120.36a50.15,50.15,0,0,1-5.77-.42v-21a35,35,0,0,1,5.77-.42c5.17,0,6.43,3.67,6.43,8.6v4.63C215.33,116.69,214.07,120.36,208.9,120.36Zm36.81.34a2.25,2.25,0,0,0-.34,0h-3.18c-2.16,0-2.34-.36-2.34-3.37V98.41H247a1.19,1.19,0,0,0,.87-.38Q249.71,110.53,245.71,120.7Z" transform="translate(-31.46 -58.23)"/></g></svg>