<?xml version="1.0" encoding="utf-8"?>
<!-- Generator: Adobe Illustrator 19.2.0, SVG Export Plug-In . SVG Version: 6.00 Build 0)  -->
<svg version="1.1" id="图层_1" xmlns="http://www.w3.org/2000/svg" xmlns:xlink="http://www.w3.org/1999/xlink" x="0px" y="0px"
	 viewBox="0 0 994 1000" style="enable-background:new 0 0 994 1000;" xml:space="preserve">
<style type="text/css">
	.st0{fill:#7E318E;}
	.st1{opacity:0.6;}
</style>
<g id="f81a34ec-f3e8-46a6-83e6-e5f4b84190b9.psd">
	<g id="SI">
		<g id="形状_1">
			<g>
				<path class="st0" d="M775.3,163.2C757.2,95.8,716.8,48.9,654.2,22.5C591.6-3.9,522.7-7.1,447.8,13C362,36,299.5,72.6,260,122.8
					c-39.4,50.2-49.8,110-31.3,179.3c17.2,64.4,49.3,111.3,96.1,140.8c19.4,1.8,52.3,3.3,65.6,3.3c37,0,48.3-13.3,48.3-37.3
					c0-16.2-7.9-24.4-35.4-40.6l-54.9-32.7c-38.7-22.8-49.1-43.4-49.1-72.4c0-45.6,26.6-78.7,104-78.7c27.5,0,65.7,4.1,79.9,7.5
					c4.2,0.8,7.5,3.7,7.5,7.9v30.7c0,4.1-2.9,7.5-7.1,7.5h-0.8c-27.5-2.5-54.9-4.1-81.9-4.1c-30.8,0-43.7,10.8-43.7,29.4
					c0,13.7,7.1,22,34.1,36.9l49.9,24.4c45.8,25.3,57.8,51.8,57.8,84.5c0,26.3-10.3,53.7-38.7,70.5c20.7,0.1,42.3-1.9,64.9-5.8
					V276.9c0-4.6,3.7-8.3,8.3-8.3h38.3c4.6,0,8.3,3.7,8.3,8.3v183.9c78.7-23,135.5-59.1,170.2-108.5
					C786.9,300.5,795.2,237.5,775.3,163.2z M581.5,229.3c0,4.6-3.7,8.3-8.3,8.3h-40.3c-4.6,0-8.7-3.7-8.7-8.3v-36.5
					c0-4.6,4.2-8.3,8.7-8.3h40.3c4.6,0,8.3,3.7,8.3,8.3V229.3z"/>
			</g>
		</g>
		<g id="形状_1_拷贝_14" class="st1">
			<g>
				<path class="st0" d="M-126.4,398.7c-17,0-29.3,9.8-29.3,33.1v14.3c0,23.3,12.3,33.1,29.3,33.1s29.3-9.8,29.3-33.1v-14.3
					C-97.1,408.5-109.5,398.7-126.4,398.7z M-111.5,446.1c0,14-4.8,20.3-14.9,20.3c-10.1,0-14.9-6.3-14.9-20.3v-14.3
					c0-14,4.8-20.3,14.9-20.3c10.1,0,14.9,6.3,14.9,20.3V446.1z M-33.1,398.7h-8.8c-1.1,0-2,0.8-2,2l-0.1,57.6c0,0.6-0.3,1-0.5,1
					c-0.3,0-0.6-0.3-0.8-0.8l-23.9-56.3c-1.2-2.8-2.4-3.4-4.5-3.4h-11.1c-2.3,0-4.1,1.9-4.1,4.2l-0.1,74.3c0,1.2,0.9,2.1,2.1,2.1
					h8.7c1.1,0,2-1,2-2.1l0.1-55.2c0-0.6,0.2-0.8,0.5-0.8c0.3,0,0.6,0.2,0.9,0.8l22.7,53.5c1.6,3.8,3.8,3.8,6.3,3.8h10.4
					c2.3,0,4.1-1.9,4.1-4.2l0.1-74.4C-31.1,399.5-31.9,398.7-33.1,398.7z M22.5,400.2c-3.3-0.5-7.3-1.5-19.5-1.5
					c-13.4,0-23.7,3.7-23.7,21.7v37c0,18,10.4,21.7,23.7,21.7c12.2,0,16.2-1,19.5-1.5c1.5-0.2,2.1-0.7,2.1-2.2v-6.8
					c0-1.2-0.9-2.1-2.1-2.1h-21c-6,0-8.1-2.1-8.1-9.1v-13.7h27.9c1.1,0,2.1-1,2.1-2.1V434c0-1.2-0.9-2.1-2.1-2.1H-6.6v-11.5
					c0-7,2.2-9.1,8.1-9.1h21c1.1,0,2.1-1,2.1-2.1v-6.8C24.5,400.9,24,400.4,22.5,400.2z M73,409.5c-2.5-9.9-9.9-10.8-14.3-10.8
					c-4.4,0-11.8,1-14.3,10.8L27.6,477l-0.1,0.5c0,1.1,0.8,1.8,1.9,1.8h10.9c0.9,0,1.7-0.8,2-1.8l4.7-20.2h23.6l4.7,20.2
					c0.2,1,1,1.8,2,1.8h10.9c1,0,1.9-0.7,1.9-1.8l-0.1-0.5L73,409.5z M49.7,445.3l7.4-32.5c0.3-1.3,0.6-1.7,1.6-1.7
					c1,0,1.3,0.4,1.6,1.7l7.4,32.5H49.7z M117.9,398.6c-7.5,0-14.8,0.5-20.2,1.4c-2.1,0.3-3.3,1.1-3.3,3.2l0.1,74.1
					c0,1.2,0.9,2.1,2.1,2.1h10.3c1.1,0,2-1,2-2.1l-0.1-28.8c2.4,0.1,6.5,0.4,9.2,0.4c15.8,0,29.6-6,29.6-24.8v-1
					C147.5,404.3,133.7,398.6,117.9,398.6z M133.3,424.1c0,8.5-4.3,12.7-15.4,12.7c-1.7,0-7.5-0.2-9.2-0.3v-25.3
					c1.9-0.2,7-0.4,9.2-0.4c10.3,0,15.4,3.4,15.4,12.3V424.1z M215.7,398.6h-8.4c-1.6,0-3.1,1.1-3.8,2.5l-15.5,32.5
					c-0.5,1-0.7,1.5-1.1,1.5c-0.4,0-0.6-0.5-1.1-1.5l-15.5-32.5c-0.7-1.5-2.2-2.5-3.8-2.5h-8.4c-2.3,0-4.1,1.9-4.1,4.2v74.9
					c0,1.1,0.8,1.6,1.7,1.6h10.4c0.9,0,1.6-1.1,1.6-2.1V426c0-0.7,0.1-1.1,0.3-1.1l0.5,0.6l10,20.3c0.6,1.2,2,1.8,3.3,1.8H192
					c1.3,0,2.7-0.6,3.3-1.8l9.9-20.3l0.5-0.6c0.2,0,0.3,0.3,0.3,1.1v51.3c0,1.1,0.7,2.1,1.6,2.1H218c0.9,0,1.7-0.5,1.7-1.6v-74.9
					C219.8,400.5,217.9,398.6,215.7,398.6z"/>
			</g>
		</g>
		<g id="形状_1_拷贝_13">
			<g>
				<path class="st0" d="M-128,538.3h-23c-2.6,0-4.6,1.9-4.6,4.4v162.9c0,2.5,2.1,4.6,4.6,4.6h23c2.6,0,4.6-2.1,4.6-4.6V542.7
					C-123.3,540.2-125.4,538.3-128,538.3z M-35.4,578.1c-15.3,0-24.1,2.5-37.6,11.1v-4.9c0-2.5-2.1-4.6-4.6-4.6h-20.2
					c-2.6,0-4.6,2.1-4.6,4.6v121c0,2.5,2.1,4.9,4.6,4.9h21.3c2.6,0,4.6-2.3,4.6-4.9v-93c9.7-5.1,18.3-8.3,26.2-8.3
					c17.9,0,19.7,5.8,19.7,25.9v75.4c0,2.5,2.1,4.9,4.6,4.9H0c2.6,0,4.6-2.3,4.6-4.9V630C4.7,600.6-2,578.1-35.4,578.1z M32.3,705.4
					c0,2.5,2.3,4.9,4.9,4.9h21.1c2.5,0,4.6-2.3,4.6-4.9V602.7h22.3c2.5,0,4.6-1.9,4.6-4.4v-13.9c0-2.5-2.1-4.6-4.6-4.6H62.9v-11.3
					c0-11.3,2.5-13.9,13.7-13.9H87c1.6,0,3.5-1.2,3.5-3.9v-13.7c0-2.1-2.3-3.2-4.2-3.7c-4.4-0.9-8.4-1.9-13.9-1.9
					c-24.1,0-40.1,7.2-40.1,37v11.3H11.6c-2.5,0-4.6,2.1-4.6,4.6V595c0,2.5,2.1,3.9,4.6,4.4l20.7,3.2V705.4z M165.9,599.4v-16.7
					c0-2.5-2.1-4.6-4.6-4.6c-9.3,0-21.8,2.3-33.2,11.1v-4.9c0-2.5-2.1-4.6-4.6-4.6h-20.2c-2.6,0-4.6,2.1-4.6,4.6v121
					c0,2.5,2.1,4.9,4.6,4.9h21.3c2.5,0,4.6-2.3,4.6-4.9v-93c9.7-5.1,19.5-8.3,32-8.3C163.8,604,165.9,602,165.9,599.4z M203.7,712.1
					c11.1,0,22-3.7,32.7-10.2v3.7c0,2.5,2.1,4.6,4.6,4.6h19.7c2.5,0,4.6-2.1,4.6-4.6v-83.3c0-29.6-18.1-44.2-51-44.2
					c-16,0-29.5,1.9-38.7,3.7c-3,0.7-4.4,2.3-4.4,4.9v14.8c0,3.2,1.9,3.9,4.2,3.9h1.2c7.7-0.9,23-1.9,37.8-1.9
					c13.7,0,20.4,3.7,20.4,18.7v10.2h-14.6c-40.4,0-56.6,13.7-56.6,40v0.9C163.5,704.7,184.4,712.1,203.7,712.1z M194.4,672.5
					c0-13,4.6-19.7,25.7-19.7h14.6v28.5c-6.7,3.7-15.3,6.5-23.7,6.5c-11.6,0-16.7-3-16.7-14.4V672.5z M298.8,644.8l31.8,19.4
					c7.4,4.6,10.2,7.4,10.2,11.8c0,6.2-2.1,11.1-16.5,11.1c-7,0-27.8-1.2-39-2.5h-0.9c-2.3,0-3.9,1.9-3.9,3.7v13.9
					c0,2.8,1.6,4.6,4.4,5.3c13,3.5,32.5,4.6,41.5,4.6c30.4,0,45.5-16,45.5-36.1c0-11.8-2.8-23.4-22.3-35.2l-30.4-18.5
					c-5.8-3.5-9.3-5.8-9.3-9.5c0-7.2,4.9-9.7,16-9.7c13.2,0,31.8,1.9,38.3,2.8h0.9c2.3,0,3.7-1.6,3.7-4.4v-13.4
					c0-2.8-1.4-4.6-4.2-5.3c-11.8-2.5-22.5-4.6-41.3-4.6c-29.5,0-44.1,11.6-44.1,34.7C279.3,626.3,287.4,637.8,298.8,644.8z
					 M452.1,710.5c3-0.5,4.4-1.9,4.4-4.2v-14.6c0-2.3-1.9-3.5-4.9-3.5h-12.3c-8.3,0-9-1.4-9-13v-72.7h20.9c2.6,0,4.6-2.1,4.6-4.6
					v-13.7c0-2.5-2.1-4.6-4.6-4.6h-20.9v-23.8c0-2.3-1.6-3.5-3.7-3.5h-0.9l-21.6,3.7c-2.5,0.5-4.6,2.1-4.6,4.6v19h-21.8
					c-2.5,0-4.6,2.1-4.6,4.6v10.4c0,2.5,2.1,4.2,4.6,4.6l21.8,3.2v72.7c0,31,10.7,36.8,36.9,36.8
					C441.4,712.1,446.5,711.4,452.1,710.5z M528.4,578.1c-9.3,0-21.8,2.3-33.2,11.1v-4.9c0-2.5-2.1-4.6-4.6-4.6h-20.2
					c-2.6,0-4.6,2.1-4.6,4.6v121c0,2.5,2.1,4.9,4.6,4.9h21.3c2.5,0,4.6-2.3,4.6-4.9v-93c9.7-5.1,19.5-8.3,32-8.3
					c2.5,0,4.6-2.1,4.6-4.6v-16.7C533,580.2,530.9,578.1,528.4,578.1z M643.7,579.7h-21.3c-2.6,0-4.6,2.3-4.6,4.9v92.6
					c-6.5,3.5-17.6,9.3-26.2,9.3c-7.2,0-11.1-1.4-14.4-4.2c-4.4-3.9-5.3-10.6-5.3-22.2v-75.4c0-2.5-2.1-4.9-4.6-4.9h-21.3
					c-2.6,0-4.6,2.3-4.6,4.9V660c0,19.2,3,33.6,11.6,42.1c6.7,6.7,16.9,9.7,28.5,9.7c14.8,0,24.4-3.7,36.4-11.6v5.3
					c0,2.5,2.1,4.6,4.6,4.6h21.3c2.6,0,4.6-2.1,4.6-4.6v-121C648.3,582.1,646.2,579.7,643.7,579.7z M745,581.1
					c-5.3-1.4-15.8-3-29.9-3c-30.2,0-52.9,18.5-52.9,56.2v21.5c0,37.7,22.7,56.2,52.9,56.2c14.2,0,24.6-1.6,29.9-3
					c3.9-0.9,4.9-2.3,4.9-6v-15c0-2.3-1.9-3.5-4.2-3.5H745c-9.3,1.2-14.8,1.6-29.9,1.6c-10.9,0-22.3-6.2-22.3-30.3v-21.5
					c0-24.1,11.4-30.3,22.3-30.3c15.1,0,20.6,0.5,29.9,1.6h0.7c2.3,0,4.2-1.2,4.2-3.5v-15C749.9,583.4,748.9,582.1,745,581.1z
					 M832,688.3h-12.3c-8.3,0-9-1.4-9-13v-72.7h20.9c2.5,0,4.6-2.1,4.6-4.6v-13.7c0-2.5-2.1-4.6-4.6-4.6h-20.9v-23.8
					c0-2.3-1.6-3.5-3.7-3.5H806l-21.6,3.7c-2.5,0.5-4.6,2.1-4.6,4.6v19H758c-2.5,0-4.6,2.1-4.6,4.6v10.4c0,2.5,2.1,4.2,4.6,4.6
					l21.8,3.2v72.7c0,31,10.7,36.8,36.9,36.8c5.1,0,10.2-0.7,15.8-1.6c3-0.5,4.4-1.9,4.4-4.2v-14.6C836.8,689.4,835,688.3,832,688.3
					z M948.6,579.7h-21.3c-2.6,0-4.6,2.3-4.6,4.9v92.6c-6.5,3.5-17.6,9.3-26.2,9.3c-7.2,0-11.1-1.4-14.4-4.2
					c-4.4-3.9-5.3-10.6-5.3-22.2v-75.4c0-2.5-2.1-4.9-4.6-4.9h-21.3c-2.6,0-4.6,2.3-4.6,4.9V660c0,19.2,3,33.6,11.6,42.1
					c6.7,6.7,16.9,9.7,28.5,9.7c14.8,0,24.4-3.7,36.4-11.6v5.3c0,2.5,2.1,4.6,4.6,4.6h21.3c2.6,0,4.6-2.1,4.6-4.6v-121
					C953.3,582.1,951.2,579.7,948.6,579.7z M1039.1,582.7c0-2.5-2.1-4.6-4.6-4.6c-9.3,0-21.8,2.3-33.2,11.1v-4.9
					c0-2.5-2.1-4.6-4.6-4.6h-20.2c-2.6,0-4.6,2.1-4.6,4.6v121c0,2.5,2.1,4.9,4.6,4.9h21.3c2.6,0,4.6-2.3,4.6-4.9v-93
					c9.7-5.1,19.5-8.3,32-8.3c2.5,0,4.6-2.1,4.6-4.6V582.7z M1094.5,578.1c-35.5,0-55.7,22.7-55.7,58.8V654
					c0,45.6,32.9,58.1,56.1,58.1c20.9,0,29.9-1.2,45-3.9c4.2-0.7,4.9-2.3,4.9-6v-15.3c0-2.3-1.9-3.5-4.2-3.5h-0.7
					c-9.7,0.9-25.7,2.3-42.7,2.3c-22.3,0-27.8-16-27.8-29.4v-0.7h75.6c3.2,0,4.6-2.1,4.6-5.8v-13
					C1149.7,602.4,1130.2,578.1,1094.5,578.1z M1118.9,633.9h-49.2V633c0-18.3,10.4-28.5,24.8-28.5c14.4,0,24.4,10.4,24.4,28.5
					V633.9z M-128,780.3h-23c-2.6,0-4.6,1.9-4.6,4.4v162.9c0,2.5,2.1,4.6,4.6,4.6h23c2.6,0,4.6-2.1,4.6-4.6V784.7
					C-123.3,782.2-125.4,780.3-128,780.3z M-35.4,820.2c-15.3,0-24.1,2.5-37.6,11.1v-4.9c0-2.5-2.1-4.6-4.6-4.6h-20.2
					c-2.6,0-4.6,2.1-4.6,4.6v121c0,2.5,2.1,4.9,4.6,4.9h21.3c2.6,0,4.6-2.3,4.6-4.9v-93c9.7-5.1,18.3-8.3,26.2-8.3
					c17.9,0,19.7,5.8,19.7,25.9v75.5c0,2.5,2.1,4.9,4.6,4.9H0c2.6,0,4.6-2.3,4.6-4.9V872C4.7,842.6-2,820.2-35.4,820.2z M88.9,882.9
					l-30.4-18.5c-5.8-3.5-9.3-5.8-9.3-9.5c0-7.2,4.9-9.7,16-9.7c13.2,0,31.8,1.9,38.3,2.8h0.9c2.3,0,3.7-1.6,3.7-4.4v-13.4
					c0-2.8-1.4-4.6-4.2-5.3c-11.8-2.5-22.5-4.6-41.3-4.6c-29.5,0-44.1,11.6-44.1,34.7c0,13.4,8.1,25,19.5,31.9l31.8,19.4
					c7.4,4.6,10.2,7.4,10.2,11.8c0,6.2-2.1,11.1-16.5,11.1c-7,0-27.8-1.2-39-2.5h-0.9c-2.3,0-3.9,1.9-3.9,3.7v13.9
					c0,2.8,1.6,4.6,4.4,5.3c13,3.5,32.5,4.6,41.5,4.6c30.4,0,45.5-16,45.5-36.1C111.1,906.2,108.4,894.7,88.9,882.9z M152.4,774.8
					h-22.5c-2.6,0-4.9,2.1-4.9,4.6v20.4c0,2.5,2.3,4.6,4.9,4.6h22.5c2.5,0,4.6-2.1,4.6-4.6v-20.4C157,776.9,155,774.8,152.4,774.8z
					 M151.7,821.8h-21.3c-2.5,0-4.6,2.1-4.6,4.6v121c0,2.5,2.1,4.9,4.6,4.9h21.3c2.6,0,4.6-2.3,4.6-4.9v-121
					C156.4,823.9,154.3,821.8,151.7,821.8z M283.2,821.8H229c-40.1,0-55.2,19.4-55.2,42.6v1.6c0,11.6,2.5,19.9,9.5,27.1
					c-6.3,4.4-9.3,11.6-9.3,18.7v0.2c0,8.3,3.9,16.4,10.4,21.3c-7.4,6.7-11.8,16-11.8,25.5v2.1c0,24.3,20,38.4,57.5,38.4
					c39.4,0,56.8-12.7,56.8-36.3v-1.6c0-24.8-20.4-29.6-52-37l-27.4-6.5c-5.3-1.2-7.9-3-7.9-7.6c0-2.1,1.2-4.2,3.9-6
					c4.6,1.9,13,3.9,25.3,3.9c35,0,55-13.2,55-42.1v-1.6c0-8.1-2.1-13.2-5.8-18.5l7.7-3c2.8-1.2,3.7-1.6,3.7-5.1V828
					C289.5,824.6,286.7,821.8,283.2,821.8z M202.5,958.8c0-8.3,2.3-11.3,5.8-16.2l20.6,4.9c24.4,5.8,27.4,8.8,27.4,13.9v1.6
					c0,8.3-3.9,13.2-26.2,13.2c-21.8,0-27.6-5.8-27.6-15.3V958.8z M253.8,866.7c0,11.6-5.6,18.3-24.8,18.3
					c-21.6,0-25.1-9.7-25.1-18.3v-1.9c0-10.9,5.3-19.7,25.1-19.7c20,0,24.8,8.6,24.8,19.7V866.7z M365.1,820.2
					c-16.5,0-26.2,3.2-35,8.6v-47.9c0-2.5-2.1-4.6-4.6-4.6h-21.3c-2.6,0-4.6,2.1-4.6,4.6v166.6c0,2.5,2.1,4.9,4.6,4.9h21.3
					c2.5,0,4.6-2.3,4.6-4.9v-93.5c9.7-5.1,19-7.9,26.9-7.9c15.5,0,19,5.1,19,25.2v76.1c0,2.5,2.1,4.9,4.6,4.9H402
					c2.6,0,4.6-2.3,4.6-4.9v-76.1C406.6,842.8,397.1,820.2,365.1,820.2z M488.7,930.3h-12.3c-8.3,0-9-1.4-9-13v-72.7h20.9
					c2.5,0,4.6-2.1,4.6-4.6v-13.7c0-2.5-2.1-4.6-4.6-4.6h-20.9v-23.8c0-2.3-1.6-3.5-3.7-3.5h-0.9l-21.6,3.7
					c-2.5,0.5-4.6,2.1-4.6,4.6v19h-21.8c-2.5,0-4.6,2.1-4.6,4.6v10.4c0,2.5,2.1,4.2,4.6,4.6l21.8,3.2v72.7c0,31,10.7,36.8,36.9,36.8
					c5.1,0,10.2-0.7,15.8-1.6c3-0.5,4.4-1.9,4.4-4.2v-14.6C493.6,931.5,491.7,930.3,488.7,930.3z"/>
			</g>
		</g>
	</g>
</g>
</svg>
