<?xml version="1.0" encoding="UTF-8"?>
<svg width="100px" height="100px" viewBox="0 0 100 100" version="1.1" xmlns="http://www.w3.org/2000/svg" xmlns:xlink="http://www.w3.org/1999/xlink">
    <!-- Generator: Sketch 55.2 (78181) - https://sketchapp.com -->
    <title>Rectangle</title>
    <desc>Created with Sketch.</desc>
    <defs>
        <polygon id="path-1" points="0.0312603924 0.840811284 9.12803459 0.840811284 9.12803459 10.0430585 0.0312603924 10.0430585"></polygon>
    </defs>
    <g id="页面1" stroke="none" stroke-width="1" fill="none" fill-rule="evenodd">
        <g id="康波页面" transform="translate(-924.000000, -558.000000)">
            <g id="Group-36" transform="translate(924.000000, 558.000000)">
                <g id="Group-12">
                    <rect id="Rectangle" x="0" y="0" width="100" height="100"></rect>
                    <g id="Group-23" transform="translate(3.000000, 5.000000)">
                        <path d="M45.3054023,67.5037173 C41.3719383,70.7418641 35.4475,68.792293 34.142535,63.8332607 C33.2914708,60.5951139 30.3153251,58.4064149 27.0111329,58.5881104 C26.2033956,58.6319679 25.4338273,58.5379875 24.714807,58.3333191 L13.855228,78.9630604 L28.4357628,77.597212 L35.4485316,90.6103642 L48.3743913,66.0574634 C47.2767764,66.2736184 46.2224884,66.7518742 45.3054023,67.5037173" id="Fill-1" fill="#0071FB"></path>
                        <path d="M54.1233556,1.58899967 L54.1233556,1.58899967 C58.0578511,-1.64705867 63.9822895,0.300424002 65.2851914,5.26154473 C66.1372871,8.49760306 69.1134328,10.6863021 72.417625,10.5056509 C77.4817148,10.229975 81.140775,15.3310221 79.3189818,20.117757 C78.127492,23.2441716 79.2632758,26.7861883 82.0423872,28.6062753 C86.2977081,31.3933162 86.2977081,37.6994008 82.0423872,40.4864417 C79.2632758,42.3065287 78.127492,45.8495897 79.3189818,48.97496 C81.140775,53.7648275 77.4817148,58.8637862 72.417625,58.5881104 C69.1134328,58.4064149 66.1372871,60.5951139 65.2851914,63.8332607 C63.9822895,68.792293 58.0578511,70.7418641 54.1233556,67.5037173 C51.5536576,65.3933353 47.8749971,65.3933353 45.3052991,67.5037173 C41.3728668,70.7418641 35.4473969,68.792293 34.1424318,63.8332607 C33.2923992,60.5951139 30.3152219,58.4064149 27.0110297,58.5881104 C21.9479715,58.8637862 18.2878797,53.7648275 20.1117361,48.97496 C21.3011628,45.8495897 20.1643473,42.3065287 17.3872991,40.4864417 C13.129915,37.6994008 13.129915,31.3933162 17.3872991,28.6062753 C20.1643473,26.7861883 21.3011628,23.2441716 20.1117361,20.117757 C18.2878797,15.3310221 21.9479715,10.229975 27.0110297,10.5056509 C30.3152219,10.6863021 33.2923992,8.49760306 34.1424318,5.26154473 C35.4473969,0.300424002 41.3728668,-1.64705867 45.3052991,1.58899967 C47.8749971,3.70042591 51.5536576,3.70042591 54.1233556,1.58899967" id="Fill-3" fill="#2AD1FF"></path>
                        <path d="M74.7138478,58.3331102 C73.9958591,58.5377786 73.2252591,58.631759 72.4175218,58.5889457 C69.1133296,58.4062061 66.137184,60.5959493 65.2850882,63.8330519 C63.9821863,68.7931284 58.057748,70.7416553 54.1232525,67.5035085 C53.2071979,66.7516653 52.1518784,66.2734095 51.0542635,66.0572546 L63.9801231,90.6111996 L70.992892,77.5970031 L85.5734267,78.9628515 L74.7138478,58.3331102 Z" id="Fill-5" fill="#0071FB"></path>
                        <path d="M73.7800498,34.5468806 C73.7800498,47.9996523 63.006093,58.9065995 49.7129863,58.9065995 C36.4229743,58.9065995 25.6490176,47.9996523 25.6490176,34.5468806 C25.6490176,21.0930647 36.4229743,10.1861175 49.7129863,10.1861175 C63.006093,10.1861175 73.7800498,21.0930647 73.7800498,34.5468806" id="Fill-7" fill="#FFD140"></path>
                        <path d="M67.7778294,34.5468806 C67.7778294,44.6455964 59.6891091,52.8312889 49.7125737,52.8312889 C39.7360382,52.8312889 31.6504127,44.6455964 31.6504127,34.5468806 C31.6504127,24.4471206 39.7360382,16.2624723 49.7125737,16.2624723 C59.6891091,16.2624723 67.7778294,24.4471206 67.7778294,34.5468806" id="Fill-9" fill="#FFE480"></path>
                        <path d="M53.0856763,39.6466746 C52.5244897,39.9265274 51.6858047,40.0643653 50.5665263,40.0643653 L47.8843846,40.0643653 L47.8843846,35.9814392 L50.1899949,35.9814392 C51.4928968,35.9814392 52.4419623,36.1119675 53.0340966,36.3740684 C53.6282942,36.6361693 53.9253929,37.1770787 53.9253929,37.9978408 C53.9253929,38.8186029 53.6468629,39.3678661 53.0856763,39.6466746 M52.2191382,29.4069883 C52.7050185,29.6596911 52.9464112,30.179716 52.9464112,30.9670629 C52.9464112,31.7533655 52.683355,32.2660808 52.1572426,32.502076 C51.6300986,32.7391155 50.8244245,32.8581573 49.7402204,32.8581573 L47.8843846,32.8581573 L47.8843846,29.0258456 L49.763947,29.0258456 C50.9172679,29.0258456 51.7342895,29.1532412 52.2191382,29.4069883 M57.9620162,38.4928042 C57.9620162,37.3754817 57.6391276,36.4419431 56.9964452,35.6869672 C56.3527312,34.9351241 55.4882563,34.4401607 54.4009573,34.2041654 C54.7021824,34.0673717 54.9126274,33.9713029 55.0281658,33.9096935 C55.1447358,33.8522611 55.3551808,33.7039809 55.6564059,33.4658972 C56.5425443,32.7913268 56.984066,31.7575424 56.984066,30.3708095 C56.984066,29.2200717 56.5910291,28.1883758 55.8070185,27.2757217 C55.3716863,26.7849352 54.7238459,26.3964829 53.8624658,26.1072321 C53.6066307,26.0216055 53.3301638,25.9516424 53.043381,25.8942099 L53.043381,23.6365919 L49.9682024,23.6365919 L49.9682024,25.6759665 L47.9070797,25.6759665 L47.9070797,23.6365919 L44.8308695,23.6365919 L44.8308695,25.6759665 L43.9725842,25.6759665 L41.4658133,25.6759665 L41.4658133,29.0258456 L43.9725842,29.0258456 L43.9725842,40.0643653 L41.4658133,40.0643653 L41.4658133,43.4152885 L43.9725842,43.4152885 L44.8308695,43.4152885 L44.8308695,45.4557074 L47.9070797,45.4557074 L47.9070797,43.4152885 L49.9682024,43.4152885 L49.9682024,45.4557074 L53.043381,45.4557074 L53.043381,43.3401042 C54.7145616,43.1573646 55.9411256,42.6383839 56.7086307,41.7674989 C57.5421578,40.8203854 57.9620162,39.7281243 57.9620162,38.4928042" id="Fill-11" fill="#FF9018"></path>
                        <g id="Group-15" transform="translate(83.892473, 53.168539)">
                            <mask id="mask-2" fill="white">
                                <use xlink:href="#path-1"></use>
                            </mask>
                            <g id="Clip-14"></g>
                            <path d="M8.78155908,5.35452843 L9.12803459,5.44153208 L8.78155908,5.52934132 C6.75527473,6.04250174 5.17423132,7.64320779 4.66527075,9.69262711 L4.57845275,10.0430585 L4.49163475,9.69262711 C3.98506366,7.64320779 2.40163076,6.04250174 0.374549919,5.52934132 L0.0312603924,5.44153208 L0.374549919,5.35452843 C2.40163076,4.84136802 3.98506366,3.23985638 4.49163475,1.19124265 L4.57845275,0.840811284 L4.66527075,1.19124265 C5.17423132,3.23985638 6.75527473,4.84136802 8.78155908,5.35452843" id="Fill-13" fill="#2AD1FF" mask="url(#mask-2)"></path>
                        </g>
                        <g id="Group-18" transform="translate(84.611462, 16.084362)" fill="#FFD140">
                            <path d="M8.6127171,4.99618919 L8.92048955,5.07417566 L8.6127171,5.15341999 C6.81209286,5.60876039 5.40628781,7.0313847 4.9536447,8.85274631 L4.87654615,9.1640633 L4.7994476,8.85274631 C4.3499133,7.0313847 2.9416212,5.60876039 1.13975344,5.15341999 L0.834468041,5.07417566 L1.13975344,4.99618919 C2.9416212,4.53959093 4.3499133,3.11696663 4.7994476,1.29497609 L4.87654615,0.984288023 L4.9536447,1.29497609 C5.40628781,3.11696663 6.81209286,4.53959093 8.6127171,4.99618919" id="Fill-16"></path>
                        </g>
                        <path d="M16.028266,55.7857193 L16.5430309,55.9162477 L16.028266,56.046776 C13.020141,56.8090614 10.6712039,59.1878097 9.91607782,62.2338188 L9.7871287,62.7538437 L9.65921117,62.2338188 C8.90408513,59.1878097 6.5530848,56.8090614 3.54392817,56.046776 L3.03225806,55.9162477 L3.54392817,55.7857193 C6.5530848,55.0223897 8.90408513,52.6425972 9.65921117,49.5986765 L9.7871287,49.0786517 L9.91607782,49.5986765 C10.6712039,52.6425972 13.020141,55.0223897 16.028266,55.7857193" id="Fill-19" fill="#0071FB"></path>
                        <path d="M7.77824101,40.8212352 L8.08602151,40.8988764 L7.77824101,40.9765176 C5.978074,41.4329538 4.57174198,42.8563758 4.11976206,44.677415 L4.04223549,44.988764 L3.96548418,44.677415 C3.51350426,42.8563758 2.10717224,41.4329538 0.306229961,40.9765176 L0,40.8988764 L0.306229961,40.8212352 C2.10717224,40.3640148 3.51350426,38.941377 3.96548418,37.1195536 L4.04223549,36.8089888 L4.11976206,37.1195536 C4.57174198,38.941377 5.978074,40.3640148 7.77824101,40.8212352" id="Fill-21" fill="#2AD1FF"></path>
                    </g>
                </g>
            </g>
        </g>
    </g>
</svg>