<?xml version="1.0" encoding="UTF-8"?>
<svg width="100px" height="100px" viewBox="0 0 100 100" version="1.1" xmlns="http://www.w3.org/2000/svg" xmlns:xlink="http://www.w3.org/1999/xlink">
    <!-- Generator: Sketch 55.2 (78181) - https://sketchapp.com -->
    <title>Rectangle</title>
    <desc>Created with Sketch.</desc>
    <defs>
        <polygon id="path-1" points="0.782497619 0.233930769 7.4605 0.233930769 7.4605 6.89824945 0.782497619 6.89824945"></polygon>
        <polygon id="path-3" points="0.430614286 0.975478022 63.4901143 0.975478022 63.4901143 29.6373626 0.430614286 29.6373626"></polygon>
        <polygon id="path-5" points="0.84036924 0.779769231 18.0347823 0.779769231 18.0347823 15.4756088 0.84036924 15.4756088"></polygon>
        <polygon id="path-7" points="1.42335714 0.336230769 0.0135714286 13.2857143 39.3851905 13.2857143 37.9754048 0.336230769"></polygon>
        <linearGradient x1="49.9987066%" y1="124.456303%" x2="49.9987066%" y2="19.5581485%" id="linearGradient-9">
            <stop stop-color="#8C7BFD" offset="0%"></stop>
            <stop stop-color="#6738E4" offset="100%"></stop>
        </linearGradient>
        <polygon id="path-10" points="0.0130595238 0.336435165 39.3846786 0.336435165 39.3846786 13.2857143 0.0130595238 13.2857143"></polygon>
    </defs>
    <g id="页面1" stroke="none" stroke-width="1" fill="none" fill-rule="evenodd">
        <g id="康波页面" transform="translate(-568.000000, -558.000000)">
            <g id="Group-11" transform="translate(532.000000, 558.000000)">
                <g id="Group-35" transform="translate(36.000000, 0.000000)">
                    <g id="Group-32">
                        <g id="Group-58" transform="translate(7.000000, 3.000000)">
                            <g id="Group-44" transform="translate(0.000000, 0.242004)">
                                <path d="M9.45283333,44.5684462 L9.82754762,44.6614462 L9.45283333,44.7575121 C7.26392857,45.3032484 5.55519048,47.0099516 5.00540476,49.1949407 L4.9122381,49.5669407 L4.81907143,49.1949407 C4.27030952,47.0099516 2.56157143,45.3032484 0.372666667,44.7575121 L2.22044605e-14,44.6614462 L0.372666667,44.5684462 C2.56157143,44.0206659 4.27030952,42.3149846 4.81907143,40.1299956 L4.9122381,39.7579956 L5.00540476,40.1299956 C5.55519048,42.3149846 7.26392857,44.0206659 9.45283333,44.5684462" id="Fill-1" fill="#FFD140"></path>
                                <path d="M20.543768,55.6431462 L21,55.7583876 L20.543768,55.8720611 C17.8706559,56.5415587 15.7839038,58.629231 15.11445,61.3017338 L15,61.7579956 L14.88555,61.3017338 C14.2160962,58.629231 12.1293441,56.5415587 9.45544813,55.8720611 L9,55.7583876 L9.45544813,55.6431462 C12.1293441,54.9736486 14.2160962,52.8859763 14.88555,50.2126895 L15,49.7579956 L15.11445,50.2126895 C15.7839038,52.8859763 17.8706559,54.9736486 20.543768,55.6431462" id="Fill-3" fill="#0071FB"></path>
                                <path d="M85.206881,40.9706 L85.690119,41.0932374 L85.206881,41.2148527 C82.3801429,41.9210396 80.1738333,44.1244242 79.4653571,46.9450835 L79.3445476,47.4274571 L79.2237381,46.9450835 C78.5152619,44.1244242 76.3089524,41.9210396 73.4822143,41.2148527 L73,41.0932374 L73.4822143,40.9706 C76.3089524,40.2644132 78.5152619,38.0610286 79.2237381,35.2393473 L79.3445476,34.7579956 L79.4653571,35.2393473 C80.1738333,38.0610286 82.3801429,40.2644132 85.206881,40.9706" id="Fill-5" fill="#2AD1FF"></path>
                                <g id="Group-9" transform="translate(77.809524, 44.967033)">
                                    <mask id="mask-2" fill="white">
                                        <use xlink:href="#path-1"></use>
                                    </mask>
                                    <g id="Clip-8"></g>
                                    <path d="M11.7275595,8.6764011 L11.9824881,8.73976374 L11.7275595,8.80517033 C10.2399643,9.17614835 9.07896429,10.3350714 8.70629762,11.8179615 L8.64282143,12.0724341 L8.57832143,11.8179615 C8.20770238,10.3350714 7.04465476,9.17614835 5.55910714,8.80517033 L5.30417857,8.73976374 L5.55910714,8.6764011 C7.04465476,8.3044011 8.20770238,7.14547802 8.57832143,5.66054396 L8.64282143,5.40811538 L8.70629762,5.66054396 C9.07896429,7.14547802 10.2399643,8.3044011 11.7275595,8.6764011" id="Fill-7" fill="#2AD1FF" mask="url(#mask-2)"></path>
                                </g>
                                <path d="M62.58005,33.8911418 C62.4141929,33.7572626 62.2401452,33.6744824 62.0630262,33.6254275 C61.3299786,37.1430758 60.596931,39.3393066 60.596931,39.3393066 C60.596931,39.3393066 60.5836214,39.2912736 60.5600738,39.2033835 C60.6081929,40.5176473 60.6460738,41.7000758 60.6726929,42.669933 C60.9388833,42.7200099 61.220431,42.713878 61.4825262,42.5861308 C62.359931,42.157922 63.1646452,38.7118121 63.4584786,37.598878 C63.7512881,36.4869659 63.8424071,34.9172077 62.58005,33.8911418" id="Fill-10" fill="#FFCC2E"></path>
                                <path d="M25.4899905,41.0309868 C25.4899905,41.0309868 24.6156571,38.4515143 24.3033952,36.1888549 C24.2634667,35.9027011 24.0453952,34.9093385 23.7536095,33.6349319 C23.584681,33.6839868 23.4208714,33.7647231 23.2652524,33.8914484 C22.0028952,34.9175143 22.0929905,36.4862505 22.3868238,37.5991846 C22.6786095,38.7110967 23.4853714,42.1582286 24.3638,42.5854154 C24.7333952,42.7663055 25.1439429,42.7070308 25.4940857,42.5792835 C25.4940857,42.3319648 25.4961333,42.0826022 25.498181,41.8260857 C25.5585857,41.4172945 25.981419,38.4913714 26.0018952,34.931822 C25.9773238,38.5833495 25.4899905,41.0309868 25.4899905,41.0309868" id="Fill-12" fill="#FFCC2E"></path>
                                <path d="M26.0024071,34.7484791 L26.0024071,34.6370835 L26.0024071,34.7484791 Z" id="Fill-14" fill="#FFCC2E"></path>
                                <path d="M59.7156357,31.8546462 C59.7238262,31.4049758 59.7422548,30.9369099 59.7606833,30.465778 C56.1230881,31.6175473 50.7286357,32.3911846 43.2230881,32.3911846 C35.30085,32.3911846 29.8429214,31.5991516 26.2728976,30.4259209 C26.0476595,31.581778 25.9596119,32.650767 25.9780405,33.1821956 C26.1264929,37.4918769 25.5695405,41.3508659 25.4978738,41.8260857 C25.4927548,42.5292066 25.4896833,43.2016681 25.4896833,43.8260967 C25.4896833,48.2635253 28.2293976,51.1332396 32.29085,54.227789 C34.5575643,55.9528879 37.8153262,57.7393055 39.8844452,58.6999648 C41.3300643,59.3714044 45.5819452,59.2405912 46.7470405,58.7040527 C48.93185,57.6943385 51.1402071,56.6549868 53.4407071,54.8573275 C57.2103738,51.9150527 60.7148738,48.5813604 60.7148738,44.8378549 C60.7148738,43.8935473 60.6534452,41.8097341 60.5602786,39.2016462 C60.3872548,38.5414484 59.643969,35.487778 59.7156357,31.8546462" id="Fill-16" fill="#FFE480"></path>
                                <path d="M43.457131,69.1294549 C51.9854643,69.1294549 55.9424881,62.7328945 56.1912738,62.3159275 C53.7505119,61.5330923 51.809369,60.7410593 51.4111071,59.503444 C51.1019167,58.5417626 50.9452738,57.5524879 50.8807738,56.6030703 C49.48225,57.4339385 48.1103452,58.0747187 46.746631,58.7042571 C45.5825595,59.2407956 41.3306786,59.3716088 39.8850595,58.7001692 C38.7732024,58.1830484 37.318369,57.4257626 35.8594405,56.570367 C35.7969881,57.5289824 35.6382976,58.5315429 35.3270595,59.503444 C34.9666786,60.6265978 32.7183929,61.545356 30.244869,62.4600264 C30.7240119,63.1192022 35.3096548,69.1294549 43.457131,69.1294549" id="Fill-18" fill="#FFCC2E"></path>
                                <path d="M26.7347381,30.5721659 C24.923619,30.0182538 23.5629762,29.3703198 22.5883095,28.6743527 C23.2885952,31.6145835 24.2182143,35.5665725 24.3031905,36.1889571 C24.6154524,38.4505945 25.4897857,41.031089 25.4897857,41.031089 C25.4897857,41.031089 26.1378571,37.7842648 25.9781429,33.1822978 C25.9494762,32.3749352 26.1685714,31.453111 26.7347381,30.5721659" id="Fill-20" fill="#0071FB"></path>
                                <path d="M59.5906286,30.5193297 C59.6735571,30.8943956 59.7247476,31.3369121 59.7155333,31.8550549 C59.6346524,35.9644286 60.5970333,39.339 60.5970333,39.339 C60.5970333,39.339 61.6300571,36.2454725 62.4706048,31.5137143 C62.6221286,30.6562747 62.7234857,29.8969451 62.7879857,29.2244835 C61.920819,29.6905055 60.8591286,30.1268901 59.5906286,30.5193297" id="Fill-22" fill="#0071FB"></path>
                                <g id="Group-26" transform="translate(11.261905, 61.318681)">
                                    <mask id="mask-4" fill="white">
                                        <use xlink:href="#path-3"></use>
                                    </mask>
                                    <g id="Clip-25"></g>
                                    <path d="M55.4603762,3.71437912 L44.942781,0.975478022 C44.942781,0.975478022 41.0113524,7.81046703 32.1953286,7.81046703 C23.5738286,7.81046703 18.938019,1.0786978 18.938019,1.0786978 L8.51768571,3.73992857 C3.7221619,5.15843407 0.430614286,9.55498352 0.430614286,14.5473462 L0.430614286,29.6378736 L63.4901143,29.6378736 L63.4901143,14.5034011 C63.4901143,9.5325 60.2282571,5.14719231 55.4603762,3.71437912" id="Fill-24" fill="#0071FB" mask="url(#mask-4)"></path>
                                </g>
                                <path d="M43.2226786,30.2238758 C26.4086548,30.2238758 20.688631,27.0690297 20.5872738,24.216689 L20.5852262,24.216689 L20.5852262,25.518689 C20.5852262,28.7604033 26.257131,32.3914912 43.2226786,32.3914912 C59.4899881,32.3914912 65.8621786,28.7604033 65.8621786,25.518689 L65.8621786,24.216689 L65.8560357,24.216689 C65.7434167,27.0690297 59.3446071,30.2238758 43.2226786,30.2238758" id="Fill-27" fill="#0071FB"></path>
                                <path d="M62.927531,21.5824385 C63.0749595,20.7822297 63.1548167,19.8971967 63.1548167,18.8966802 C63.1548167,12.1138121 58.4534833,6.56753736 51.66665,4.03405385 C52.1120071,6.5470978 51.511031,11.2870319 50.8025548,15.3820978 C49.5442929,12.444933 46.6243881,10.3866692 43.2212452,10.3866692 C39.7853405,10.3866692 36.8408643,12.488878 35.6041024,15.4750978 C34.9601262,11.375944 34.3908881,6.60228462 34.7266976,4.05449341 C27.968531,6.59513077 23.2907452,12.1311857 23.2907452,18.8966802 C23.2907452,19.8941308 23.3757214,20.7791637 23.5313405,21.5773286 C21.6587929,22.3346143 20.5848167,23.2073835 20.5848167,24.1394275 C20.5848167,27.0111857 26.2567214,30.2242846 43.222269,30.2242846 C59.4895786,30.2242846 65.861769,27.0111857 65.861769,24.1394275 C65.861769,23.2094275 64.7908643,22.3366582 62.927531,21.5824385" id="Fill-29" fill="#2AD1FF"></path>
                                <g id="Group-33" transform="translate(33.785714, 0.000000)">
                                    <mask id="mask-6" fill="white">
                                        <use xlink:href="#path-5"></use>
                                    </mask>
                                    <g id="Clip-32"></g>
                                    <path d="M9.43542857,10.3871802 C12.8385714,10.3871802 15.7584762,12.444422 17.0167381,15.3815868 C17.9422619,10.0325538 18.6855476,3.57671868 17.1529048,2.4321033 C14.1285714,0.175575824 3.7092619,0.282883516 1.51319048,2.4321033 C0.267214286,3.65132308 0.979785714,10.1367956 1.81828571,15.4756088 C3.05504762,12.488367 5.99952381,10.3871802 9.43542857,10.3871802" id="Fill-31" fill="#0071FB" mask="url(#mask-6)"></path>
                                </g>
                                <path d="M35.8529905,22.293122 C35.2960381,21.1863198 34.9817286,19.9364407 34.9817286,18.6129791 C34.9817286,17.9006604 35.0728476,17.2077593 35.2438238,16.5475615 C31.3605143,16.431056 27.4802762,16.2297264 23.6031095,15.9415286 C23.4003952,16.896056 23.2898238,17.8812429 23.2898238,18.896067 C23.2898238,19.8945396 23.3758238,20.7795725 23.5314429,21.5767154 C23.4618238,21.6053308 23.3963,21.6329242 23.3307762,21.6615396 C27.5007524,21.9691549 31.6758476,22.1807044 35.8529905,22.293122" id="Fill-34" fill="#0071FB"></path>
                                <path d="M63.154919,18.8962714 C63.154919,17.8804253 63.0443476,16.8952385 62.8416333,15.941733 C58.9665143,16.2299308 55.0852524,16.4302385 51.2019429,16.5477659 C51.372919,17.2079637 51.4650619,17.9008648 51.4650619,18.6131835 C51.4650619,19.9366451 51.1487048,21.1865242 50.5917524,22.2933264 C54.7709429,22.1798868 58.9460381,21.9683374 63.1160143,21.661744 C63.0525381,21.6351725 62.9911095,21.6086011 62.9276333,21.5820297 C63.0750619,20.7818209 63.154919,19.8967879 63.154919,18.8962714" id="Fill-36" fill="#0071FB"></path>
                                <path d="M51.4646524,18.6128769 C51.4646524,23.1555692 47.7748429,26.8398 43.2209381,26.8398 C38.6711286,26.8398 34.9823429,23.1555692 34.9823429,18.6128769 C34.9823429,14.0691626 38.6711286,10.3869758 43.2209381,10.3869758 C47.7748429,10.3869758 51.4646524,14.0691626 51.4646524,18.6128769" id="Fill-38" fill="#FFCC2E"></path>
                                <path d="M49.4085357,18.6128769 C49.4085357,22.0232176 46.639131,24.7876681 43.2216548,24.7876681 C39.8062262,24.7876681 37.0368214,22.0232176 37.0368214,18.6128769 C37.0368214,15.2025363 39.8062262,12.4380857 43.2216548,12.4380857 C46.639131,12.4380857 49.4085357,15.2025363 49.4085357,18.6128769" id="Fill-40" fill="#FFE37B"></path>
                                <polygon id="Fill-42" fill="#FFA000" points="61.482731 78.006867 61.482731 63.8810868 56.22035 62.2990648 56.22035 78.006867"></polygon>
                            </g>
                            <g id="Group-47" transform="translate(23.523810, 77.912334)">
                                <mask id="mask-8" fill="white">
                                    <use xlink:href="#path-7"></use>
                                </mask>
                                <g id="Clip-46"></g>
                                <polygon id="Fill-45" fill="url(#linearGradient-9)" mask="url(#mask-8)" points="1.42335714 0.336230769 0.0135714286 13.2857143 39.3851905 13.2857143 37.9754048 0.336230769"></polygon>
                            </g>
                            <g id="Group-57" transform="translate(23.523810, 62.582664)">
                                <path d="M6.69280238,15.6662077 L6.69280238,0.0800208791 C6.68256429,0.0667351648 6.67539762,0.0575373626 6.67539762,0.0575373626 L1.43042143,1.60685604 L1.43042143,15.6662077 L6.69280238,15.6662077 Z" id="Fill-48" fill="#FFA000"></path>
                                <g id="Group-52" transform="translate(0.000000, 15.329670)">
                                    <mask id="mask-11" fill="white">
                                        <use xlink:href="#path-10"></use>
                                    </mask>
                                    <g id="Clip-51"></g>
                                    <polygon id="Fill-50" fill="#FFA000" mask="url(#mask-11)" points="39.3846786 13.2859187 0.0130595238 13.2859187 1.42284524 0.336435165 37.9748929 0.336435165"></polygon>
                                </g>
                                <path d="M5.4720119,18.3892681 C5.4720119,19.1659714 4.84032143,19.7955099 4.06222619,19.7955099 C3.28310714,19.7955099 2.65244048,19.1659714 2.65244048,18.3892681 C2.65244048,17.6115429 3.28310714,16.9809824 4.06222619,16.9809824 C4.84032143,16.9809824 5.4720119,17.6115429 5.4720119,18.3892681" id="Fill-53" fill="#FFCC2E"></path>
                                <path d="M36.4927238,18.3892681 C36.4927238,19.1659714 35.8620571,19.7955099 35.0829381,19.7955099 C34.303819,19.7955099 33.6731524,19.1659714 33.6731524,18.3892681 C33.6731524,17.6115429 34.303819,16.9809824 35.0829381,16.9809824 C35.8620571,16.9809824 36.4927238,17.6115429 36.4927238,18.3892681" id="Fill-55" fill="#FFCC2E"></path>
                            </g>
                        </g>
                        <rect id="Rectangle" x="0" y="0" width="100" height="100"></rect>
                    </g>
                </g>
            </g>
        </g>
    </g>
</svg>