<?xml version="1.0" encoding="UTF-8"?>
<svg width="100px" height="100px" viewBox="0 0 100 100" version="1.1" xmlns="http://www.w3.org/2000/svg" xmlns:xlink="http://www.w3.org/1999/xlink">
    <!-- Generator: Sketch 55.2 (78181) - https://sketchapp.com -->
    <title>Rectangle Copy 5</title>
    <desc>Created with Sketch.</desc>
    <g id="页面1" stroke="none" stroke-width="1" fill="none" fill-rule="evenodd">
        <g id="康波页面" transform="translate(-208.000000, -790.000000)">
            <g id="Group-38" transform="translate(208.000000, 790.000000)">
                <g id="Group-37">
                    <g id="Group-25" transform="translate(4.000000, 5.000000)">
                        <path d="M39.4349503,35.4491097 C37.6799215,37.4190343 36.2736839,39.0486287 35.3446813,40.1372421 C34.6626007,40.9365193 33.3781633,40.8910681 32.5753898,40.0430138 L28.5836682,35.8204798 C18.193012,38.578596 10.5317855,48.0546319 10.5317855,59.3276559 C10.5317855,61.9904353 10.9680513,64.5501179 11.7564301,66.946841 L11.7807902,66.8714584 L14.6386635,67.8547579 L17.2894767,73.0561571 L22.7339414,76.7077788 L34.8574809,80.2962121 L46.1129178,80.2962121 L54.1118629,73.9518797 L54.2126248,73.981811 C57.2908456,69.905608 59.1189545,64.8305855 59.1189545,59.3276559 C59.1189545,47.4748511 50.6472036,37.6052737 39.4349503,35.4491097" id="Fill-1" fill="#FFC400"></path>
                        <path d="M53.0606173,59.3276559 C53.0606173,69.4100782 44.8955812,77.5846557 34.8260343,77.5846557 C24.7542729,77.5846557 16.5903441,69.4100782 16.5903441,59.3276559 C16.5903441,49.244125 24.7542729,41.070656 34.8260343,41.070656 C44.8955812,41.070656 53.0606173,49.244125 53.0606173,59.3276559" id="Fill-3" fill="#FFE480"></path>
                        <path d="M38.2297936,64.4201937 C37.6628695,64.6984442 36.8158051,64.8381237 35.6852787,64.8381237 L32.9779946,64.8381237 L32.9779946,60.7597035 L35.3065911,60.7597035 C36.620925,60.7597035 37.5787167,60.8905145 38.1777518,61.1521364 C38.7767868,61.4137584 39.076858,61.9536308 39.076858,62.7739708 C39.076858,63.5920937 38.7945032,64.1397261 38.2297936,64.4201937 M37.3539401,54.1947662 C37.8455696,54.4497367 38.0891699,54.9674378 38.0891699,55.7545208 C38.0891699,56.5382781 37.8234242,57.0504363 37.2919328,57.2854526 C36.7615487,57.5226861 35.945488,57.6413028 34.8515016,57.6413028 L32.9779946,57.6413028 L32.9779946,53.815636 L34.8758616,53.815636 C36.0407136,53.815636 36.8667397,53.9420127 37.3539401,54.1947662 M43.1516251,63.2661749 C43.1516251,62.1520644 42.8260867,61.2186505 42.1783316,60.4670417 C41.5283619,59.7154328 40.654723,59.2199031 39.5574148,58.9848868 C39.861915,58.8496415 40.0734043,58.7531961 40.1907753,58.6922249 C40.3092536,58.6334708 40.5196356,58.4849228 40.8230286,58.2499065 C41.7177057,57.5747888 42.163937,56.5427123 42.163937,55.15922 C42.163937,54.0085268 41.7697476,52.9797761 40.9747251,52.0685335 C40.5362447,51.577438 39.8829532,51.1883308 39.0137434,50.9012118 C38.7557486,50.8169607 38.4767156,50.7471209 38.1866099,50.6872583 L38.1866099,48.4335403 L35.0818145,48.4335403 L35.0818145,50.4710876 L33.0012473,50.4710876 L33.0012473,48.4335403 L29.8964519,48.4335403 L29.8964519,50.4710876 L29.0294566,50.4710876 L26.4993363,50.4710876 L26.4993363,53.815636 L29.0294566,53.815636 L29.0294566,64.8381237 L26.4993363,64.8381237 L26.4993363,68.1837807 L29.0294566,68.1837807 L29.8964519,68.1837807 L29.8964519,70.2191109 L33.0012473,70.2191109 L33.0012473,68.1837807 L35.0818145,68.1837807 L35.0818145,70.2191109 L38.1866099,70.2191109 L38.1866099,68.106181 C39.874095,67.9243759 41.112027,67.4055663 41.8871186,66.5364493 C42.7286466,65.5908411 43.1516251,64.5000106 43.1516251,63.2661749" id="Fill-5" fill="#FF9018"></path>
                        <path d="M25.0115793,18.726996 L25.6006489,18.875544 L25.0115793,19.0229835 C21.5613145,19.8887748 18.8673176,22.5837027 18.0025369,26.0391079 L17.8541622,26.6288659 L17.7080021,26.0391079 C16.8421141,22.5837027 14.1492245,19.8887748 10.6978524,19.0229835 L10.1098901,18.875544 L10.6978524,18.726996 C14.1492245,17.8623133 16.8421141,15.1640597 17.7080021,11.7119802 L17.8541622,11.1222222 L18.0025369,11.7119802 C18.8673176,15.1640597 21.5613145,17.8623133 25.0115793,18.726996" id="Fill-7" fill="#FFCC2E"></path>
                        <path d="M14.8953412,31.7818096 L15.1648352,31.8493627 L14.8953412,31.9169158 C13.3191522,32.3126748 12.0889093,33.5432879 11.6939064,35.1199512 L11.6257365,35.3888889 L11.5588409,35.1199512 C11.1632009,33.5432879 9.93295793,32.3126748 8.3561318,31.9169158 L8.08791209,31.8493627 L8.3561318,31.7818096 C9.93295793,31.3873252 11.1632009,30.1554375 11.5588409,28.5794115 L11.6257365,28.3111111 L11.6939064,28.5794115 C12.0889093,30.1554375 13.3191522,31.3873252 14.8953412,31.7818096" id="Fill-9" fill="#FFCC2E"></path>
                        <path d="M6.80742916,64.1373652 L7.07692308,64.2049183 L6.80742916,64.2724713 C5.23124013,64.6682304 4.0009972,65.8988435 3.60599429,67.4755067 L3.53782444,67.7444444 L3.47092878,67.4755067 C3.07528877,65.8988435 1.84504584,64.6682304 0.268219717,64.2724713 L0,64.2049183 L0.268219717,64.1373652 C1.84504584,63.7428807 3.07528877,62.5109931 3.47092878,60.9349671 L3.53782444,60.6666667 L3.60599429,60.9349671 C4.0009972,62.5109931 5.23124013,63.7428807 6.80742916,64.1373652" id="Fill-9-Copy" fill="#0071FB"></path>
                        <path d="M71.4334702,62.0968078 L71.7802198,62.1829886 L71.4334702,62.2698588 C69.4074326,62.7772912 67.8260341,64.3595702 67.3172843,66.3872314 L67.2304245,66.7333333 L67.1442542,66.3872314 C66.6355044,64.3595702 65.0541058,62.7772912 63.0266895,62.2698588 L62.6813187,62.1829886 L63.0266895,62.0968078 C65.0541058,61.5893755 66.6355044,60.0057176 67.1442542,57.9794353 L67.2304245,57.6333333 L67.3172843,57.9794353 C67.8260341,60.0057176 69.4074326,61.5893755 71.4334702,62.0968078" id="Fill-11" fill="#FF9018"></path>
                        <path d="M46.3591755,12.6520821 L45.2463655,11.4747833 C43.7050405,9.84518889 41.1383801,9.77534913 39.5117951,11.3162581 L38.2616831,12.5024254 C36.6362053,14.0433344 36.5653398,16.6118855 38.1044502,18.2414799 L39.2172603,19.4187787 L46.3591755,12.6520821 Z" id="Fill-13" fill="#FFC400"></path>
                        <path d="M90.1964726,59.0159267 L54.8711205,21.6549813 L47.7314198,28.4216779 L83.056772,65.7826233 C84.5958824,67.4111091 87.1625428,67.4820575 88.7880205,65.9389314 L90.0392398,64.7549812 C91.6647175,63.2140722 91.735583,60.6444125 90.1964726,59.0159267" id="Fill-15" fill="#FFC400"></path>
                        <path d="M77.7861492,0.212068983 C76.5504318,-1.09493222 62.6397526,3.75615961 50.5516458,11.6136868 C49.8651362,12.0604395 49.1885919,12.5216037 48.5153695,12.9860935 L54.7426767,19.570985 C55.0449624,19.2860832 55.3461409,18.9956385 55.6528557,18.7107366 C66.3413685,8.76023378 79.1602759,1.66540111 77.7861492,0.212068983" id="Fill-17" fill="#2AD1FF"></path>
                        <path d="M38.9645804,21.0961524 C38.8461021,20.9731014 38.7697003,20.8256619 38.7254093,20.6704624 C33.274301,25.4384117 29.098772,29.8848763 27.2164067,31.970092 C26.5885825,32.6651639 26.6605553,33.7859257 27.3769614,34.5430774 L32.574504,40.0426813 C33.3783847,40.8907355 34.6628222,40.9361868 35.3437955,40.1369095 C37.2361262,37.9175572 41.107155,33.4644411 45.8938991,28.4237842 L38.9645804,21.0961524 Z" id="Fill-19" fill="#2AD1FF"></path>
                        <path d="M55.0854886,21.4523351 L47.5183803,28.623659 C47.0987236,29.0194176 46.4387885,29.0027891 46.0434918,28.5837505 L38.9646912,21.0964849 C38.5693945,20.6785549 38.5871108,20.0178486 39.004553,19.62209 L46.5727686,12.448549 C46.9891035,12.0527904 47.6501459,12.0716361 48.0465499,12.4895661 L55.1264578,19.9779402 C55.5206472,20.3958702 55.5029308,21.0565765 55.0854886,21.4523351" id="Fill-21" fill="#0071FB"></path>
                        <polygon id="Fill-23" fill="#0071FB" points="4.00329984 90.9879032 69.0423412 90.9879032 63.6111638 80.2957687 58.7978451 75.2872602 54.1118629 73.9525448 46.1129178 80.2957687 34.8574809 80.2957687 22.7339414 76.7073353 17.2894767 73.0557137 14.6386635 67.855423 11.7807902 66.871015 9.07572057 75.3382544 5.46157928 82.7922629"></polygon>
                    </g>
                    <rect id="Rectangle-Copy-5" x="0" y="0" width="100" height="100"></rect>
                </g>
            </g>
        </g>
    </g>
</svg>