<?xml version="1.0" encoding="UTF-8"?>
<svg width="20px" height="18px" viewBox="0 0 20 18" version="1.1" xmlns="http://www.w3.org/2000/svg" xmlns:xlink="http://www.w3.org/1999/xlink">
    <!-- Generator: Sketch 55.2 (78181) - https://sketchapp.com -->
    <title>Group 6</title>
    <desc>Created with Sketch.</desc>
    <g id="页面1" stroke="none" stroke-width="1" fill="none" fill-rule="evenodd">
        <g id="康波页面" transform="translate(-58.000000, -443.000000)" fill="#FFFFFF" fill-rule="nonzero">
            <g id="Group-30" transform="translate(56.000000, 440.000000)">
                <g id="Group-6">
                    <path d="M12.0271003,20.7777778 C11.8644986,20.7777778 11.7199639,20.7241225 11.5934959,20.616812 C11.5934959,20.616812 10.6720867,19.7940979 9.62420958,18.9177286 C7.85365854,17.4690364 7.29358627,17.182875 7.16711834,17.1471049 L2.52393857,17.1471049 C2.23486902,17.1471049 2,16.9145987 2,16.6105522 L2,7.16722558 C2,6.88106416 2.23486902,6.63067293 2.52393857,6.63067293 L6.71544715,6.63067293 C6.85998193,6.57701766 7.4561879,6.32662643 9.4435411,4.8421641 C10.5998193,3.98367986 11.6476965,3.14308071 11.6476965,3.14308071 C11.7560976,3.05365526 11.9006323,3 12.0451671,3 C12.1355014,3 12.2439024,3.01788509 12.3342367,3.07154035 C12.5510388,3.17885088 12.6955736,3.41135703 12.6955736,3.66174827 L12.6955736,20.1160295 C12.6955736,20.3664207 12.5510388,20.616812 12.3161698,20.7241225 C12.2077687,20.7598927 12.1174345,20.7777778 12.0271003,20.7777778 Z M7.20325203,16.0739996 C7.58265583,16.0739996 8.16079494,16.2349653 10.5275519,18.1665549 C10.8527552,18.4348312 11.1960253,18.7209926 11.5573622,19.0250391 L11.6657633,19.1144646 L11.6657633,4.57388777 L11.5573622,4.64542812 C11.1056911,4.9852448 10.6720867,5.32506148 10.2565492,5.62910798 C7.65492322,7.56069752 7.0767841,7.70377822 6.69738031,7.70377822 L3.46341463,7.70377822 C3.06594399,7.70377822 3.0298103,7.95416946 3.0298103,8.22244579 L3.0298103,15.4659066 C3.0298103,15.9309188 3.15627823,16.0561145 3.58988257,16.0561145 L7.16711834,16.0561145 L7.20325203,16.0739996 L7.20325203,16.0739996 Z M17.5374887,19.2575453 C17.2484192,19.2575453 17.0135501,19.0250391 17.0135501,18.7209926 C17.0135501,18.4884865 17.1761518,18.3275207 17.3387534,18.2380952 C19.5790425,16.9145987 20.9521229,14.4822267 20.9521229,11.8710038 C20.9521229,9.25978091 19.5609756,6.8274089 17.3387534,5.50391236 C17.1400181,5.39660183 17.031617,5.21775095 17.031617,5.02101498 C17.031617,4.73485357 17.266486,4.48446233 17.5555556,4.48446233 C17.6639566,4.48446233 17.7542909,4.52023251 17.8807588,4.59177286 C20.4281843,6.09412028 22,8.88419405 22,11.8531187 C22,14.8399285 20.4101174,17.6121171 17.862692,19.1144646 C17.736224,19.2217751 17.6458898,19.2575453 17.5374887,19.2575453 Z M15.7488708,16.2528504 C15.4598013,16.2528504 15.2249322,16.0203443 15.2249322,15.7162978 C15.2249322,15.5195618 15.3152665,15.358596 15.4778681,15.2512855 C16.7064137,14.5716521 17.4652213,13.2839258 17.4652213,11.8888889 C17.4652213,10.5117371 16.7244806,9.24189582 15.5501355,8.54437738 C15.3875339,8.45495193 15.2971996,8.27610105 15.2971996,8.07936508 C15.2971996,7.79320367 15.5320687,7.54281243 15.8211382,7.54281243 C15.9114724,7.54281243 16.0560072,7.5964677 16.1282746,7.63223787 C17.6097561,8.5086072 18.5492322,10.1361502 18.5492322,11.8710038 C18.5492322,13.6416275 17.5916893,15.2870557 16.0560072,16.163425 C16.0198735,16.163425 15.8753388,16.2528504 15.7488708,16.2528504 L15.7488708,16.2528504 Z" id="Shape"></path>
                </g>
            </g>
        </g>
    </g>
</svg>