<?xml version="1.0" encoding="UTF-8"?>
<svg width="163px" height="42px" viewBox="0 0 163 42" version="1.1" xmlns="http://www.w3.org/2000/svg" xmlns:xlink="http://www.w3.org/1999/xlink">
    <!-- Generator: Sketch 55.2 (78181) - https://sketchapp.com -->
    <title>Group 17</title>
    <desc>Created with Sketch.</desc>
    <defs>
        <polygon id="path-1" points="0.0731482673 0.238849074 13.534245 0.238849074 13.534245 14.5431176 0.0731482673 14.5431176"></polygon>
        <polygon id="path-3" points="0 0.244064815 41.7133139 0.244064815 41.7133139 41.4074074 0 41.4074074"></polygon>
    </defs>
    <g id="页面1" stroke="none" stroke-width="1" fill="none" fill-rule="evenodd" opacity="0.600000024">
        <g id="康波页面" transform="translate(-339.000000, -2016.000000)">
            <g id="Group-21" transform="translate(339.000000, 2016.000000)">
                <g id="Group-46">
                    <g id="Group-17">
                        <path d="M69.583772,23.2331389 L67.2832126,23.2331389 C67.1424032,23.2331389 67.028626,23.3458148 67.028626,23.4847685 L67.028626,29.9260093 L60.9201606,29.9260093 L60.9201606,15.16825 L62.7135641,15.16825 C62.8543735,15.16825 62.9685542,15.0555741 62.9685542,14.9166204 L62.9685542,12.9581296 C62.9685542,12.8191759 62.8543735,12.7065 62.7135641,12.7065 L55.8728092,12.7065 C55.7315963,12.7065 55.6174156,12.8191759 55.6174156,12.9581296 L55.6174156,14.9166204 C55.6174156,15.0555741 55.7315963,15.16825 55.8728092,15.16825 L57.7949181,15.16825 L57.7949181,29.9260093 L55.8728092,29.9260093 C55.7315963,29.9260093 55.6174156,30.0386852 55.6174156,30.1772407 L55.6174156,32.1357315 C55.6174156,32.2750833 55.7315963,32.3873611 55.8728092,32.3873611 L69.583772,32.3873611 C69.7245814,32.3873611 69.8387621,32.2750833 69.8387621,32.1357315 L69.8387621,23.4847685 C69.8387621,23.3458148 69.7245814,23.2331389 69.583772,23.2331389" id="Fill-1" fill="#FFFFFF"></path>
                        <path d="M80.2766124,28.892775 C79.1009144,29.9872843 77.8533995,30.5339417 76.5348748,30.5339417 C75.7699045,30.5339417 75.1651099,30.3169509 74.7204911,29.8829694 C74.2762757,29.4493861 74.0539663,28.9118861 74.0539663,28.2704694 C74.0539663,27.5816731 74.3073426,27.0202843 74.814095,26.5867009 C75.3208475,26.1527194 75.9514639,25.9353306 76.7063475,25.9353306 C77.9106916,25.9353306 79.1009144,26.3884231 80.2766124,27.293812 L80.2766124,28.892775 Z M84.6505802,29.9960435 L82.9721644,29.9960435 L82.9721644,23.6579231 C82.9721644,22.5447009 82.9076099,21.7336731 82.7789045,21.2240435 C82.6497955,20.7144139 82.3984366,20.2406176 82.0256347,19.8018583 C81.6532361,19.3630991 81.0867708,19.0051639 80.3270455,18.7264602 C79.5669168,18.4485528 78.6659787,18.3095991 77.6242312,18.3095991 C74.9161718,18.3095991 72.9730827,19.279488 71.7957708,21.2192657 C71.7098327,21.3614046 71.7913327,21.5485343 71.9539292,21.5911361 L74.0575975,22.1385898 C74.1661297,22.1668583 74.2778896,22.1186824 74.3380059,22.0247194 C74.9549045,21.0568213 75.9115208,20.5730713 77.2082584,20.5730713 C78.0018748,20.5730713 78.644595,20.7243676 79.1368228,21.0257657 C79.6290505,21.3279602 79.9417361,21.6675806 80.0760901,22.0446269 C80.2096371,22.4220713 80.2766124,22.9599694 80.2766124,23.6579231 L80.2766124,25.0160065 C79.0625851,24.2424046 77.8053871,23.8562009 76.5058252,23.8562009 C75.1098351,23.8562009 73.917595,24.2754509 72.928298,25.1151454 C71.939001,25.9548398 71.4443525,27.0111269 71.4443525,28.2848028 C71.4443525,29.5481269 71.910355,30.5860991 72.8423599,31.3971269 C73.7743649,32.2085528 74.8709837,32.6138676 76.1326198,32.6138676 C77.7577782,32.6138676 79.2300233,31.9824046 80.5489515,30.7178861 L80.5489515,32.1360898 C80.5489515,32.2750435 80.6631322,32.3873213 80.8039416,32.3873213 L84.6505802,32.3873213 C84.7913896,32.3873213 84.9059738,32.2750435 84.9059738,32.1360898 L84.9059738,30.2480713 C84.9059738,30.1091176 84.7913896,29.9960435 84.6505802,29.9960435 L84.6505802,29.9960435 Z" id="Fill-3" fill="#FFFFFF"></path>
                        <path d="M110.258122,29.9962426 L108.493365,29.9962426 L108.493365,23.2046315 C108.493365,22.0356685 108.393305,21.1509833 108.192783,20.5521685 C107.991857,19.9529556 107.60211,19.4576593 107.024348,19.0662796 C106.445778,18.6749 105.707437,18.4790111 104.808919,18.4790111 C103.250736,18.4790111 101.568286,19.1916963 99.7615678,20.6158722 C99.1608079,19.1916963 98.0682238,18.4790111 96.4846223,18.4790111 C94.9094936,18.4790111 93.3020876,19.1252056 91.6611941,20.4175944 L91.6611941,18.6912241 L87.2868228,18.6912241 C87.1460134,18.6912241 87.0318327,18.8039 87.0318327,18.9428537 L87.0318327,20.8308722 C87.0318327,20.9698259 87.1460134,21.0825019 87.2868228,21.0825019 L88.9365926,21.0825019 L88.9365926,29.9962426 L87.1145431,29.9962426 C86.9737337,29.9962426 86.859553,30.1089185 86.859553,30.2482704 L86.859553,32.1358907 C86.859553,32.2752426 86.9737337,32.3875204 87.1145431,32.3875204 L93.4396693,32.3875204 C93.5808822,32.3875204 93.6950629,32.2752426 93.6950629,32.1358907 L93.6950629,30.2482704 C93.6950629,30.1089185 93.5808822,29.9962426 93.4396693,29.9962426 L91.6611941,29.9962426 L91.6611941,22.6531963 C93.2819144,21.4742796 94.6068946,20.8846222 95.6365381,20.8846222 C96.2659441,20.8846222 96.7117733,21.0852889 96.9744292,21.4858259 C97.2362782,21.8871593 97.3674045,22.5357426 97.3674045,23.4315759 L97.3674045,32.3875204 L101.813189,32.3875204 C101.953999,32.3875204 102.068179,32.2752426 102.068179,32.1358907 L102.068179,30.2482704 C102.068179,30.1089185 101.953999,29.9962426 101.813189,29.9962426 L100.091602,29.9962426 L100.091602,22.6531963 C101.573531,21.4742796 102.896897,20.8846222 104.063315,20.8846222 C104.474447,20.8846222 104.825461,20.9905296 105.117167,21.2027426 C105.408872,21.4149556 105.590432,21.6841037 105.661845,22.0093907 C105.734065,22.3346778 105.76957,22.8936778 105.76957,23.6859926 L105.76957,32.3875204 L110.258122,32.3875204 C110.398932,32.3875204 110.513112,32.2752426 110.513112,32.1358907 L110.513112,30.2482704 C110.513112,30.1089185 110.398932,29.9962426 110.258122,29.9962426" id="Fill-5" fill="#FFFFFF"></path>
                        <path d="M124.609707,28.878362 C123.72975,29.7654361 122.68316,30.208575 121.469537,30.208575 C120.313205,30.208575 119.292438,29.7909176 118.408445,28.9563991 C117.524049,28.1214824 117.082254,26.9923343 117.082254,25.5677602 C117.082254,24.0113991 117.536153,22.820538 118.44395,21.9947787 C119.35215,21.1702139 120.384618,20.7569361 121.541353,20.7569361 C122.717051,20.7569361 123.742257,21.1558806 124.616566,21.952575 C125.491683,22.7496676 125.928636,23.8700565 125.928636,25.3133435 C125.928636,26.803612 125.488858,27.9920843 124.609707,28.878362 M122.02874,18.3095194 C120.040462,18.3095194 118.362853,19.0831213 116.995913,20.6295287 L116.995913,12.9580102 C116.995913,12.8190565 116.881732,12.7063806 116.740923,12.7063806 L112.521482,12.7063806 C112.380673,12.7063806 112.266492,12.8190565 112.266492,12.9580102 L112.266492,14.8460287 C112.266492,14.9849824 112.380673,15.0976583 112.521482,15.0976583 L114.329007,15.0976583 L114.329007,29.996362 L112.521482,29.996362 C112.380673,29.996362 112.266492,30.109038 112.266492,30.2479917 L112.266492,32.1360102 C112.266492,32.2749639 112.380673,32.3872417 112.521482,32.3872417 L116.740923,32.3872417 C116.881732,32.3872417 116.995913,32.2749639 116.995913,32.1360102 L116.995913,30.3359824 C117.397764,30.9113065 118.05743,31.4348713 118.97491,31.9062787 C119.892794,32.3784824 120.905089,32.613788 122.014618,32.613788 C123.993212,32.613788 125.615547,31.9186213 126.882024,30.5274917 C128.148502,29.1355657 128.781943,27.4211398 128.781943,25.3838157 C128.781943,23.2616861 128.133977,21.552038 126.839257,20.2548713 C125.54373,18.9577046 123.940358,18.3095194 122.02874,18.3095194" id="Fill-7" fill="#FFFFFF"></path>
                        <path d="M141.361427,28.9421454 C140.458472,29.7965713 139.42318,30.222988 138.257165,30.222988 C137.052821,30.222988 136.018336,29.817275 135.152902,29.0058491 C134.287873,28.1948213 133.855358,27.0346176 133.855358,25.5256361 C133.855358,24.1954231 134.275769,23.0754324 135.117398,22.1652657 C135.958219,21.2547009 136.995529,20.7996176 138.228519,20.7996176 C139.375571,20.7996176 140.410056,21.1866176 141.332781,21.9598213 C142.255103,22.733025 142.716264,23.8792935 142.716264,25.3978306 C142.716264,26.9076083 142.264383,28.0885157 141.361427,28.9421454 M147.277036,29.9960435 L145.440462,29.9960435 L145.440462,12.9580898 C145.440462,12.8191361 145.326685,12.7064602 145.185875,12.7064602 L140.707813,12.7064602 C140.567004,12.7064602 140.452823,12.8191361 140.452823,12.9580898 L140.452823,14.8461083 C140.452823,14.985062 140.567004,15.097738 140.707813,15.097738 L142.716264,15.097738 L142.716264,20.5161361 C141.320677,19.0453769 139.685836,18.3095991 137.81295,18.3095991 C136.044157,18.3095991 134.457732,18.9601731 133.052865,20.2617194 C131.647596,21.5636639 130.944759,23.3417935 130.944759,25.5961083 C130.944759,27.8412657 131.627826,29.5720157 132.99517,30.7887565 C134.36211,32.0050991 135.94894,32.6138676 137.755657,32.6138676 C139.705605,32.6138676 141.358603,31.8693306 142.716264,30.3782657 L142.716264,32.1356917 C142.716264,32.2750435 142.830445,32.3873213 142.971254,32.3873213 L147.277036,32.3873213 C147.417846,32.3873213 147.532026,32.2750435 147.532026,32.1356917 L147.532026,30.2480713 C147.532026,30.1091176 147.417846,29.9960435 147.277036,29.9960435" id="Fill-9" fill="#FFFFFF"></path>
                        <g id="Group-13" transform="translate(149.282178, 18.070750)">
                            <mask id="mask-2" fill="white">
                                <use xlink:href="#path-1"></use>
                            </mask>
                            <g id="Clip-12"></g>
                            <path d="M8.9050047,10.822025 C7.72930668,11.9165343 6.48179183,12.4631917 5.16326708,12.4631917 C4.39829678,12.4631917 3.79390569,12.2462009 3.34888342,11.8122194 C2.90466807,11.3786361 2.68276213,10.8411361 2.68276213,10.1997194 C2.68276213,9.51092315 2.9357349,8.94953426 3.44248738,8.51595093 C3.94923985,8.08196944 4.57985619,7.86458056 5.33473985,7.86458056 C6.53908391,7.86458056 7.72930668,8.31767315 8.9050047,9.22306204 L8.9050047,10.822025 Z M13.279376,11.9252935 L11.6005567,11.9252935 L11.6005567,5.58717315 C11.6005567,4.47395093 11.5360022,3.66292315 11.4072968,3.15329352 C11.2781879,2.64366389 11.026829,2.16986759 10.654027,1.73110833 C10.2816285,1.29234907 9.71516312,0.934413889 8.95543787,0.655710185 C8.19530916,0.377802778 7.29437104,0.238849074 6.25262351,0.238849074 C3.54456411,0.238849074 1.601475,1.20873796 0.424566584,3.14851574 C0.338225,3.29065463 0.419725,3.47778426 0.582321535,3.52038611 L2.68598985,4.06783981 C2.79452203,4.09610833 2.90628193,4.04793241 2.96639827,3.95396944 C3.58329678,2.9860713 4.54031658,2.5023213 5.83665074,2.5023213 C6.63026708,2.5023213 7.27298738,2.65361759 7.7652151,2.95501574 C8.25784629,3.25721019 8.57012847,3.59683056 8.70448243,3.97387685 C8.83802946,4.3513213 8.9050047,4.88921944 8.9050047,5.58717315 L8.9050047,6.94525648 C7.69097748,6.17165463 6.43418292,5.78545093 5.13421757,5.78545093 C3.73863094,5.78545093 2.54598738,6.20470093 1.55709381,7.04439537 C0.567393317,7.88408981 0.0731482673,8.94037685 0.0731482673,10.2140528 C0.0731482673,11.4773769 0.538747277,12.5153491 1.47075223,13.3263769 C2.40316064,14.1378028 3.49977946,14.5431176 4.76101213,14.5431176 C6.38657401,14.5431176 7.85841559,13.9116546 9.17734381,12.6471361 L9.17734381,14.0653398 C9.17734381,14.2042935 9.2915245,14.3165713 9.43273738,14.3165713 L13.279376,14.3165713 C13.4201854,14.3165713 13.5343661,14.2042935 13.5343661,14.0653398 L13.5343661,12.1773213 C13.5343661,12.0383676 13.4201854,11.9252935 13.279376,11.9252935 L13.279376,11.9252935 Z" id="Fill-11" fill="#FFFFFF" mask="url(#mask-2)"></path>
                        </g>
                        <g id="Group-16" transform="translate(0.000000, 0.154083)">
                            <mask id="mask-4" fill="white">
                                <use xlink:href="#path-3"></use>
                            </mask>
                            <g id="Clip-15"></g>
                            <path d="M24.323554,16.0348991 L26.6745465,22.2014176 C26.7157,22.3085194 26.7108584,22.4275657 26.6616356,22.5310843 L25.9495193,24.0297139 C25.9019104,24.1300472 25.8163757,24.2080843 25.7114748,24.2471028 L19.4626035,26.567112 C19.3540713,26.6077231 19.2334351,26.6029454 19.1285342,26.5543713 L17.6094871,25.8512417 C17.5078139,25.8042602 17.4291381,25.7202509 17.3895985,25.6163343 L15.0386059,19.4502139 C14.9978559,19.3427139 15.0022941,19.2240657 15.0519203,19.1205472 L15.7640366,17.6215194 C15.8112421,17.5211861 15.8967767,17.4435472 16.0020812,17.4045287 L22.250549,15.0841213 C22.3590812,15.0439083 22.4797173,15.0486861 22.5846183,15.0972602 L24.1036653,15.7999917 C24.2053386,15.8469731 24.2840144,15.9313806 24.323554,16.0348991 M40.8979104,1.02431574 L19.9282025,8.85748241 L23.6191035,1.09040833 C23.8063114,0.696639815 23.5150094,0.24394537 23.0736183,0.24394537 L17.1636579,0.24394537 C16.9336827,0.24394537 16.7238807,0.373343519 16.6226109,0.57719537 L11.6595837,10.5882324 L7.86257129,0.62895463 C7.77421238,0.397232407 7.54948218,0.24394537 7.2989302,0.24394537 L1.35386832,0.24394537 C0.932650495,0.24394537 0.64175198,0.660010185 0.790630693,1.04860278 L8.72840792,21.7415565 L0.857605941,18.0996954 C0.458578713,17.9149546 -0.000161386139,18.2024176 -0.000161386139,18.6375935 L-0.000161386139,24.4704639 C-0.000161386139,24.6970102 0.130964851,24.9040472 0.337539109,25.0035843 L10.4822718,29.9012046 L0.389989604,33.648575 C0.155576238,33.7357694 -0.000161386139,33.957538 -0.000161386139,34.204788 L-0.000161386139,40.0711028 C-0.000161386139,40.4867694 0.421459901,40.7742324 0.815242079,40.6273157 L21.78495,32.7941491 L18.094049,40.5612231 C17.9068411,40.9549917 18.1981431,41.4076861 18.6395342,41.4076861 L24.549898,41.4076861 C24.7794698,41.4076861 24.9892718,41.2778898 25.0905416,41.0744361 L30.0535688,31.0633991 L33.8505812,41.0226769 C33.9389401,41.2540009 34.1636703,41.4076861 34.4142223,41.4076861 L40.3592842,41.4076861 C40.780502,41.4076861 41.0714005,40.9916213 40.9225218,40.6026306 L32.9847446,19.9096769 L40.8555465,23.5519361 C41.2545738,23.7366769 41.7133139,23.4488157 41.7133139,23.0136398 L41.7133139,17.1811676 C41.7133139,16.9546213 41.5821876,16.7471861 41.3756134,16.6476491 L31.2308807,11.7500287 L41.3231629,8.00305648 C41.5575762,7.91586204 41.7133139,7.69409352 41.7133139,7.44684352 L41.7133139,1.58013056 C41.7133139,1.16446389 41.2916926,0.877399074 40.8979104,1.02431574" id="Fill-14" fill="#FFFFFF" mask="url(#mask-4)"></path>
                        </g>
                    </g>
                </g>
            </g>
        </g>
    </g>
</svg>