<?xml version="1.0" encoding="UTF-8"?>
<svg width="100px" height="100px" viewBox="0 0 100 100" version="1.1" xmlns="http://www.w3.org/2000/svg" xmlns:xlink="http://www.w3.org/1999/xlink">
    <!-- Generator: Sketch 55.2 (78181) - https://sketchapp.com -->
    <title>Rectangle Copy 3</title>
    <desc>Created with Sketch.</desc>
    <defs>
        <polygon id="path-1" points="0.0212765957 0.0262745098 6.0212766 0.0262745098 6.0212766 6.02627451 0.0212765957 6.02627451"></polygon>
        <polygon id="path-3" points="0.559965957 0.40825098 85.7024681 0.40825098 85.7024681 7.72393725 0.559965957 7.72393725"></polygon>
    </defs>
    <g id="页面1" stroke="none" stroke-width="1" fill="none" fill-rule="evenodd">
        <g id="康波页面" transform="translate(-924.000000, -798.000000)">
            <g id="Group-41" transform="translate(924.000000, 798.000000)">
                <g id="Group-40">
                    <rect id="Rectangle-Copy-3" x="0" y="0" width="100" height="100"></rect>
                    <g id="Group-45" transform="translate(4.000000, 6.000000)">
                        <path d="M7.69583768,51.9230113 L8,52.0003793 L7.69583768,52.0769887 C5.9140988,52.5229923 4.52223381,53.9140988 4.0754717,55.6958377 L3.99962075,56 L3.92301128,55.6958377 C3.47700768,53.9140988 2.0859012,52.5229923 0.304162321,52.0769887 L0,52.0003793 L0.304162321,51.9230113 C2.0859012,51.4762492 3.47700768,50.0851427 3.92301128,48.3049208 L3.99962075,48 L4.0754717,48.3049208 C4.52223381,50.0851427 5.9140988,51.4762492 7.69583768,51.9230113" id="Fill-1" fill="#0071FB"></path>
                        <path d="M46.6195099,7.90487748 L47,7.99960855 L46.6195099,8.09512252 C44.3921553,8.65333125 42.6525483,10.3937211 42.0951225,12.6202928 L42.0003915,13 L41.9056604,12.6202928 C41.3466688,10.3937211 39.6062789,8.65333125 37.3804901,8.09512252 L37,7.99960855 L37.3804901,7.90487748 C39.6062789,7.34745166 41.3466688,5.60706177 41.9056604,3.3804901 L42.0003915,3 L42.0951225,3.3804901 C42.6525483,5.60706177 44.3921553,7.34745166 46.6195099,7.90487748" id="Fill-3" fill="#FFCC2E"></path>
                        <g id="Group-7" transform="translate(31.000000, 0.000000)">
                            <mask id="mask-2" fill="white">
                                <use xlink:href="#path-1"></use>
                            </mask>
                            <g id="Clip-6"></g>
                            <path d="M6.77127151,2.94227322 L7,3.00035855 L6.77127151,3.05700968 C5.43546845,3.39189674 4.39220841,4.43528146 4.05736138,5.77196128 L4,6 L3.94335564,5.77196128 C3.6085086,4.43528146 2.56524857,3.39189674 1.22872849,3.05700968 L1,3.00035855 L1.22872849,2.94227322 C2.56524857,2.60738616 3.6085086,1.56400143 3.94335564,0.228755826 L4,0 L4.05736138,0.228755826 C4.39220841,1.56400143 5.43546845,2.60738616 6.77127151,2.94227322" id="Fill-5" fill="#FFCC2E" mask="url(#mask-2)"></path>
                        </g>
                        <path d="M86.4707256,81.8590306 L86.6222029,81.897316 L86.4707256,81.9356015 C85.5793398,82.1582399 84.8835429,82.8544529 84.6604884,83.7454226 L84.6230352,83.8968999 L84.5843336,83.7454226 C84.361279,82.8544529 83.6654821,82.1582399 82.7736802,81.9356015 L82.6222029,81.897316 L82.7736802,81.8590306 C83.6654821,81.635976 84.361279,80.9401791 84.5843336,80.0492095 L84.6230352,79.8968999 L84.6604884,80.0492095 C84.8835429,80.9401791 85.5793398,81.635976 86.4707256,81.8590306" id="Fill-8" fill="#2AD1FF" transform="translate(84.622203, 81.896900) rotate(74.000000) translate(-84.622203, -81.896900) "></path>
                        <path d="M80.6065096,80.5131843 L80.9480094,80.6003019 L80.6065096,80.6852684 C78.6010719,81.1870012 77.0355505,82.7518913 76.5332499,84.7582847 L76.4482783,85.0997641 L76.3611555,84.7582847 C75.8593927,82.7518913 74.294947,81.1870012 72.2889715,80.6852684 L71.9480094,80.6003019 L72.2889715,80.5131843 C74.294947,80.0109137 75.8593927,78.4460237 76.3611555,76.4417813 L76.4482783,76.0997641 L76.5332499,76.4417813 C77.0355505,78.4460237 78.6010719,80.0109137 80.6065096,80.5131843" id="Fill-10" fill="#2AD1FF" transform="translate(76.448009, 80.599764) rotate(74.000000) translate(-76.448009, -80.599764) "></path>
                        <path d="M82.5022979,39.5792815 L82.5022979,23.7154431 C82.5022979,20.1019529 79.5671489,17.1716 75.9467234,17.1716 L61.6150809,17.1716 L82.5022979,39.5792815 Z" id="Fill-12" fill="#2AD1FF"></path>
                        <path d="M56.6157957,17.5801569 L18.7437957,17.1712941 C15.1223489,17.1712941 12.1861787,20.1016471 12.1861787,23.7151373 L12.1861787,64.7737255 L82.5020936,64.7737255 L82.5020936,43.6821176 C81.7892426,43.6719216 81.0814979,43.3854118 80.5524766,42.8266667 L56.6157957,17.5801569 Z" id="Fill-14" fill="#2AD1FF"></path>
                        <g id="Group-18" transform="translate(4.212766, 64.365882)">
                            <mask id="mask-4" fill="white">
                                <use xlink:href="#path-3"></use>
                            </mask>
                            <g id="Clip-17"></g>
                            <path d="M85.7027745,0.40825098 L85.7027745,3.32127059 C85.7027745,5.75201569 83.7286468,7.72393725 81.2929021,7.72393725 L4.97085957,7.72393725 C2.53511489,7.72393725 0.559965957,5.75201569 0.559965957,3.32127059 L0.559965957,0.40825098 L85.7027745,0.40825098 Z" id="Fill-16" fill="#2AD1FF" mask="url(#mask-4)"></path>
                        </g>
                        <polygon id="Fill-19" fill="#0071FB" points="62.4298213 23.7150353 56.7842043 23.7150353 17.3986723 23.7150353 17.3986723 64.7746431 77.2893957 64.7746431 77.2893957 39.3853882"></polygon>
                        <g id="Group-8" transform="translate(47.423263, 5.000000)">
                            <path d="M42.9683282,39.8789992 L19.0306261,14.6324894 L14.1918176,19.204411 L38.1295197,44.4499012 C39.1722431,45.5510776 40.9114772,45.5989992 42.0124133,44.55696 L42.8621155,43.7575874 C43.9630516,42.7145286 44.0110516,40.9791561 42.9683282,39.8789992" id="Fill-21" fill="#FFC400"></path>
                            <path d="M13.2615368,8.54899919 L12.5078346,7.75370507 C11.4630687,6.6525286 9.72383462,6.60460704 8.6208559,7.64664625 L7.77523888,8.44703841 C6.67328143,9.48907762 6.62528143,11.2244502 7.66698356,12.324607 L8.42170696,13.1199012 L13.2615368,8.54899919 Z" id="Fill-37" fill="#FFC400"></path>
                            <path d="M8.25094952,14.2553364 C8.17128994,14.170709 8.11920484,14.0707874 8.08856654,13.9667874 C4.39563037,17.1887482 1.56567292,20.1935325 0.289077176,21.6036502 C-0.135773888,22.0716502 -0.0867526116,22.8292188 0.399375048,23.3410619 L3.92073675,27.0575325 C4.46711973,27.6315717 5.33520484,27.6611404 5.79784313,27.1217678 C7.08056654,25.6209051 9.70218356,22.6130619 12.945758,19.2065521 L8.25094952,14.2553364 Z" id="Fill-39" fill="#0071FB"></path>
                            <path d="M34.557707,0.143148212 C33.7212814,-0.73983218 24.2938772,2.53922664 16.1032389,7.84832468 C15.638558,8.1501286 15.176941,8.45805017 14.7194091,8.773109 L18.939324,13.2226776 C19.1456219,13.0299717 19.352941,12.8352266 19.5582176,12.6435404 C26.8011112,5.91922664 35.4891112,1.12401096 34.557707,0.143148212" id="Fill-41" fill="#0071FB"></path>
                            <path d="M19.1747282,14.4953521 L14.0468985,19.3425678 C13.7640048,19.6107247 13.3166857,19.5974698 13.0480899,19.3150384 L8.25115377,14.2557443 C7.98255803,13.9712737 7.99481335,13.5267247 8.27872824,13.2585678 L13.406558,8.41135213 C13.6894516,8.14421488 14.1367708,8.15543056 14.4053665,8.44092076 L19.2012814,13.4981757 C19.4698772,13.7816266 19.4576219,14.2282149 19.1747282,14.4953521" id="Fill-43" fill="#FF9018"></path>
                        </g>
                        <path d="M48.9722553,44.0893678 C48.9722553,50.9747796 43.3817872,56.5550933 36.4851064,56.5550933 C29.5894468,56.5550933 24,50.9747796 24,44.0893678 C24,37.2049757 29.5894468,31.6236423 36.4851064,31.6236423 C43.3817872,31.6236423 48.9722553,37.2049757 48.9722553,44.0893678" id="Fill-23" fill="#FFCC2E"></path>
                        <path d="M45.4862298,44.0893678 C45.4862298,49.0596195 41.4574622,53.0893678 36.4852491,53.0893678 C31.5149974,53.0893678 27.4862298,49.0596195 27.4862298,44.0893678 C27.4862298,39.1181354 31.5149974,35.0893678 36.4852491,35.0893678 C41.4574622,35.0893678 45.4862298,39.1181354 45.4862298,44.0893678" id="Fill-25" fill="#FFE37B"></path>
                        <path d="M38.4615947,47.157032 C38.8215069,46.9021715 39,46.578841 39,46.1895764 C39,45.8015798 38.8595465,45.4934648 38.5771763,45.2652315 C38.2962692,45.0382662 37.7695684,44.8227125 37,44.6236423 L37,47.6236423 C37.6159473,47.567852 38.1031456,47.4131605 38.4615947,47.157032 L38.4615947,47.157032 Z M35.2660333,40.0816274 C35.0894695,40.342956 35,40.6676371 35,41.0543506 C35,41.4423841 35.0696754,41.7485873 35.2082344,41.9729604 C35.3475851,42.1999732 35.6112431,42.4164272 36,42.6236423 L36,39.6236423 C35.6888361,39.6685169 35.4433888,39.8229384 35.2660333,40.0816274 L35.2660333,40.0816274 Z M35.6707352,49.6236423 L35.6707352,48.5676688 C34.3071246,48.4322311 33.0843032,47.905896 32,46.9897646 L33.0888447,45.7300839 C33.9244962,46.4348003 34.7851263,46.8543269 35.6707352,46.9897646 L35.6707352,44.1808088 C34.5466932,43.9209446 33.7235311,43.5773953 33.2012489,43.1545654 C32.6778314,42.7295333 32.4178257,42.099693 32.4178257,41.2650444 C32.4178257,40.4292947 32.7187056,39.7477018 33.3193301,39.2169622 C33.9222254,38.6851215 34.7056486,38.3955271 35.6707352,38.3470778 L35.6707352,37.6236423 L36.6256032,37.6236423 L36.6256032,38.3624935 C37.7201249,38.4384707 38.7544706,38.8029413 39.7297758,39.4481973 L38.761283,40.7794507 C38.1038887,40.3257895 37.3919955,40.0461052 36.6256032,39.9403977 L36.6256032,42.6612639 L36.6698836,42.6612639 C37.8154982,42.9222292 38.6556912,43.2745875 39.1938689,43.7183386 C39.7297758,44.1620898 40,44.8062446 40,45.6508033 C40,46.4953619 39.6900369,47.1824605 39.0735169,47.7132 C38.4558615,48.2439396 37.6417826,48.5324329 36.6256032,48.5808822 L36.6256032,49.6236423 L35.6707352,49.6236423 Z" id="Fill-27" fill="#FF9018"></path>
                        <polygon id="Fill-29" fill="#0071FB" points="77.2891915 31.3303482 77.2891915 23.7148314 70.3212554 23.7148314"></polygon>
                        <path d="M56.9228255,27.9200659 C55.2959319,29.7176345 54.0070809,31.2032031 53.2206979,32.1218698 C52.7580596,32.6612423 51.8899745,32.6316737 51.3435915,32.0576345 L47.8222298,28.3411639 C47.716017,28.2310463 47.6353362,28.1056345 47.572017,27.9771639 C41.0858894,30.0031247 36.3798468,36.04736 36.3798468,43.1907325 C36.3798468,51.9919874 43.5277617,59.1272031 52.3444426,59.1272031 C61.1601021,59.1272031 68.308017,51.9919874 68.308017,43.1907325 C68.308017,35.977007 63.5069957,29.8868894 56.9228255,27.9200659" id="Fill-31" fill="#FFCC2E"></path>
                        <path d="M53.9018894,31.3303482 C53.6455489,31.6250149 53.4157617,31.8931717 53.2206979,32.1215639 C52.7580596,32.6619561 51.8899745,32.6313678 51.3435915,32.0573286 L50.6695489,31.3456423 C44.8441872,32.1582698 40.3597617,37.1492502 40.3597617,43.1904266 C40.3597617,49.7964659 45.7255489,55.1534855 52.3444426,55.1534855 C58.9623149,55.1534855 64.3270809,49.7964659 64.3270809,43.1904266 C64.3270809,37.1094855 59.7834213,32.0940345 53.9018894,31.3303482" id="Fill-33" fill="#FFE37B"></path>
                        <path d="M54.5810383,46.5268894 C54.2092936,46.7104188 53.6506553,46.8001443 52.9081872,46.8001443 L51.1301447,46.8001443 L51.1301447,44.1277521 L52.660017,44.1277521 C53.5250383,44.1277521 54.1531234,44.2133992 54.5463149,44.3846933 C54.9415489,44.5559874 55.1386553,44.9097913 55.1386553,45.4471247 C55.1386553,45.984458 54.952783,46.34336 54.5810383,46.5268894 M54.0060596,39.8270463 C54.328783,39.9922227 54.4891234,40.3317521 54.4891234,40.8486933 C54.4891234,41.3625757 54.3134638,41.6980266 53.9641872,41.8509678 C53.6149106,42.0069678 53.0797617,42.0854776 52.3597617,42.0854776 L51.1301447,42.0854776 L51.1301447,39.5792815 L52.3771234,39.5792815 C53.1420596,39.5792815 53.6843574,39.6608502 54.0060596,39.8270463 M57.8144,45.77136 C57.8144,45.0403012 57.6009532,44.4295561 57.1750809,43.9360659 C56.7481872,43.4435953 56.1752511,43.1203796 55.4532085,42.9653992 C55.6523574,42.8766933 55.7922723,42.8134776 55.8688681,42.7737129 C55.9475064,42.7349678 56.0853787,42.6391247 56.2845277,42.4821051 C56.872783,42.0416345 57.1658894,41.3656345 57.1658894,40.4571639 C57.1658894,39.7046933 56.9054638,39.0297129 56.385634,38.4332423 C56.0955915,38.1120659 55.6666553,37.8571639 55.0957617,37.6675168 C54.9262298,37.612458 54.7424,37.5665757 54.5534638,37.5288502 L54.5534638,36.0514384 L52.5129532,36.0514384 L52.5129532,37.3861051 L51.1444426,37.3861051 L51.1444426,36.0514384 L49.1049532,36.0514384 L49.1049532,37.3861051 L48.5350809,37.3861051 L46.8714213,37.3861051 L46.8714213,39.5792815 L48.5350809,39.5792815 L48.5350809,46.8001443 L46.8714213,46.8001443 L46.8714213,48.9933208 L48.5350809,48.9933208 L49.1049532,48.9933208 L49.1049532,50.3279874 L51.1444426,50.3279874 L51.1444426,48.9933208 L52.5129532,48.9933208 L52.5129532,50.3279874 L54.5534638,50.3279874 L54.5534638,48.9423404 C55.6625702,48.8230463 56.4744851,48.4835168 56.9851234,47.9135561 C57.537634,47.2946541 57.8144,46.579909 57.8144,45.77136" id="Fill-35" fill="#FF9018"></path>
                    </g>
                </g>
            </g>
        </g>
    </g>
</svg>