<?xml version="1.0" encoding="UTF-8"?>
<svg width="100px" height="100px" viewBox="0 0 100 100" version="1.1" xmlns="http://www.w3.org/2000/svg" xmlns:xlink="http://www.w3.org/1999/xlink">
    <!-- Generator: Sketch 55.2 (78181) - https://sketchapp.com -->
    <title>Rectangle Copy 4</title>
    <desc>Created with Sketch.</desc>
    <defs>
        <polygon id="path-1" points="0.00129125 0.857132692 10.0012913 0.857132692 10.0012913 10.8571327 0.00129125 10.8571327"></polygon>
    </defs>
    <g id="页面1" stroke="none" stroke-width="1" fill="none" fill-rule="evenodd">
        <g id="康波页面" transform="translate(-572.000000, -798.000000)">
            <g id="Group-39" transform="translate(572.000000, 798.000000)">
                <g id="Group-14">
                    <rect id="Rectangle-Copy-4" x="0" y="0" width="100" height="100"></rect>
                    <g id="Group-34" transform="translate(1.000000, 14.000000)">
                        <path d="M47.63324,32.5171481 C46.78574,31.8320712 45.66139,32.563475 45.1656025,32.9551481 C45.330865,35.1072442 45.7334275,36.7497442 45.84784,37.1891481 C45.890215,38.3431096 45.924115,39.3833596 45.94954,40.2354942 C46.184015,40.2804173 46.42979,40.2776096 46.6628525,40.1681096 C47.4369025,39.790475 48.14739,36.7595712 48.410115,35.7796865 C48.6686025,34.7998019 48.7477025,33.4184173 47.63324,32.5171481" id="Fill-1" fill="#FFCC2E"></path>
                        <path d="M13.095355,29.6778692 C13.095355,29.6778692 11.49358,28.1238115 10.3791175,29.0264846 C9.264655,29.9277538 9.343755,31.3091385 9.60083,32.2876192 C9.86073,33.2689077 10.5712175,36.2984077 11.349505,36.6774462 C12.1249675,37.0508692 13.095355,36.2534846 13.095355,36.2534846 L13.095355,29.6778692 Z" id="Fill-3" fill="#FFCC2E"></path>
                        <path d="M35.8746013,51.5608827 C35.6019888,50.7129596 35.4621513,49.842575 35.4056513,49.0072865 C34.1697138,49.7386904 32.9577888,50.3016327 31.7529263,50.8575558 C30.7218013,51.3306519 26.9659638,51.4429596 25.6890638,50.8547481 C24.7073763,50.3984981 23.4205888,49.733075 22.1309763,48.9806135 C22.0758888,49.8229212 21.9374638,50.7059404 21.6606138,51.5608827 C21.3413888,52.5477865 19.3568263,53.3564019 17.1688638,54.1608058 C17.5912013,54.7391904 21.6436638,60.0302865 28.8445888,60.0302865 C36.3449638,60.0302865 40.2208638,54.5651135 40.4977138,54.1608058 C38.1557888,53.4308058 36.2475013,52.7162481 35.8746013,51.5608827" id="Fill-5" fill="#FFA33F"></path>
                        <path d="M43.2122562,27.2348962 C43.2461562,25.4955308 43.4311937,23.4852231 43.2277937,22.2147423 C43.0272187,20.9456654 42.3534562,18.8693769 40.8053562,18.7360115 C40.8053562,18.7360115 33.9095312,26.4164538 19.1220687,25.4506077 C17.6883812,25.35655 16.4143062,25.1319346 15.2758312,24.8076462 C13.8675687,25.9012423 13.3604812,27.2756077 13.4000312,28.4014923 C13.5299812,32.1932808 13.0384312,35.5891846 12.9748687,36.0075308 C12.9720437,36.6224154 12.9663937,37.2148385 12.9663937,37.7679538 C12.9663937,41.67205 15.3874187,44.1961654 18.9779937,46.9182231 C20.9795062,48.4371846 23.8610062,50.0080885 25.6887812,50.8546077 C26.9656812,51.4428192 30.7215187,51.3305115 31.7526437,50.8574154 C33.6835312,49.9687808 35.6327812,49.0548769 37.6667812,47.4713385 C40.9988687,44.88405 44.0950687,41.9514154 44.0950687,38.6579923 C44.0950687,37.8269154 44.0413937,35.9906846 43.9594687,33.6982038 C43.8040937,33.1142038 43.1486937,30.4272423 43.2122562,27.2348962" id="Fill-7" fill="#FFC400"></path>
                        <path d="M43.9357387,12.0215558 C42.2308512,9.95649808 40.0993887,8.90361346 37.7405137,9.19140192 C35.9466387,6.86944038 31.4068637,6.07767115 27.0662512,6.65324808 C22.2792887,7.29059423 19.5037262,8.08236346 16.0642887,10.4001135 C14.0952637,11.7239404 10.6360512,14.8741712 10.1317887,18.7361519 C9.43118875,24.0749788 11.8493887,30.5312673 11.9214262,31.0478827 C12.1940387,33.0385365 12.9666762,36.0497865 12.9666762,36.0497865 C12.9666762,36.0497865 13.5373262,32.450325 13.3989012,28.4016327 C13.3607637,27.2757481 13.8678512,25.9013827 15.2761137,24.8077865 C16.4145887,25.132075 17.6886637,25.3566904 19.1223512,25.4507481 C33.9098137,26.4165942 40.8056387,18.7361519 40.8056387,18.7361519 C42.3523262,18.8695173 43.0260887,20.9444019 43.2280762,22.2148827 C43.4314762,23.4853635 43.2464387,25.4956712 43.2125387,27.2350365 C43.1433262,30.8471327 43.9922387,33.819075 43.9922387,33.819075 C43.9922387,33.819075 44.3948012,32.2144788 44.9555637,28.0254019 C45.2776137,25.6276327 48.4599762,17.4951519 43.9357387,12.0215558" id="Fill-9" fill="#0071FB"></path>
                        <path d="M48.1588313,56.4249288 L40.5172063,54.1352558 C40.5172063,54.1352558 36.6342438,60.0300058 28.8457188,60.0300058 C21.2266938,60.0300058 17.1304438,54.1071788 17.1304438,54.1071788 L9.16676875,56.4487942 C4.93068125,57.6940058 2.02375625,61.5601981 2.02375625,65.9570442 L2.02375625,72.976275 L55.2538188,72.976275 L55.2538188,65.9163327 C55.2538188,61.5433519 52.3709063,57.6855827 48.1588313,56.4249288" id="Fill-11" fill="#2AD1FF"></path>
                        <path d="M72.42996,24.8673096 C72.42996,24.8673096 74.0642225,23.2767519 75.2026975,24.2004827 C76.3439975,25.1214058 76.263485,26.533675 75.9965225,27.5332135 C75.7309725,28.5327519 75.00636,31.6310404 74.2139475,32.0170981 C73.4201225,32.4017519 72.42996,31.5833096 72.42996,31.5833096 L72.42996,24.8673096 Z" id="Fill-13" fill="#FFCC2E"></path>
                        <path d="M41.8432612,29.0788481 C41.8432612,29.0788481 40.2061737,27.4882904 39.0676987,28.4120212 C37.9292237,29.3329442 38.0097362,30.7452135 38.2752862,31.7447519 C38.5380112,32.7442904 39.2654487,35.8425788 40.0606862,36.2286365 C40.8502737,36.6132904 41.8432612,35.7948481 41.8432612,35.7948481 L41.8432612,29.0788481 Z" id="Fill-15" fill="#FFCC2E"></path>
                        <path d="M65.11773,47.2259462 C64.8394675,46.3625808 64.6982175,45.4711385 64.640305,44.6190038 C63.3789425,45.3630423 62.1387675,45.9414269 60.90848,46.5071769 C59.8561675,46.9915038 56.018405,47.1066192 54.71043,46.5029654 C53.707555,46.0368885 52.3953425,45.3588308 51.0760675,44.5867154 C51.0195675,45.4514846 50.876905,46.3527538 50.594405,47.2259462 C50.26953,48.2339077 48.24118,49.0635808 46.0080175,49.8834269 C46.436005,50.4744462 50.5788675,55.8806577 57.9379925,55.8806577 C65.6022175,55.8806577 69.5600425,50.2975615 69.8453675,49.8834269 C67.45118,49.1365808 65.499105,48.4079846 65.11773,47.2259462" id="Fill-17" fill="#FFCC2E"></path>
                        <path d="M72.6182463,22.3694462 C72.6535588,20.5907731 72.8414213,18.5397538 72.6337838,17.2426 C72.4275588,15.9426385 71.7396713,13.8228308 70.1576713,13.68385 C70.1576713,13.68385 63.1121213,21.5327538 48.0011963,20.5472538 C46.5378463,20.4517923 45.2341088,20.2215615 44.0716213,19.88885 C42.6322838,21.0063115 42.1124838,22.4101577 42.1548588,23.5655231 C42.2876338,27.4359269 41.7833713,30.9062346 41.7198088,31.3330038 C41.7169838,31.9647346 41.7141588,32.5697923 41.7141588,33.1313308 C41.7141588,37.1224654 44.1846213,39.7027346 47.8571213,42.48235 C49.9024213,44.0350038 52.8418338,45.6396 54.7105713,46.5029654 C56.0185463,47.1066192 59.8563088,46.9915038 60.9072088,46.5071769 C62.8804713,45.5974846 64.8735088,44.6667346 66.9512963,43.0495038 C70.3554213,40.4032538 73.5208338,37.4074462 73.5208338,34.0410231 C73.5208338,33.1916962 73.4643338,31.3203692 73.3809963,28.9745423 C73.2227963,28.3807154 72.5532713,25.6333885 72.6182463,22.3694462" id="Fill-19" fill="#FFE480"></path>
                        <path d="M73.3589612,6.82423654 C71.6159362,4.71565962 69.4364487,3.63890962 67.0281362,3.93090962 C65.1918862,1.56121731 62.2877862,-0.237109615 57.6745612,0.0254096154 C50.4284362,0.439544231 50.3450987,4.22290962 44.7982112,5.87523654 C39.2555612,7.53037115 37.0209862,3.17844808 34.7962987,4.67494808 C32.5701987,6.17004423 33.8852362,11.8556212 38.3882862,16.5711404 C38.0139737,20.4541788 40.5155112,25.3592173 40.6426362,26.2646981 C40.9237237,28.2974673 41.7147237,31.3761019 41.7147237,31.3761019 C41.7147237,31.3761019 42.2966737,27.7008327 42.1540112,23.5651019 C42.1130487,22.4111404 42.6314362,21.0072942 44.0707737,19.8898327 C45.2346737,20.2211404 46.5384112,20.4513712 48.0003487,20.5468327 C63.1112737,21.5337365 70.1582362,13.6848327 70.1582362,13.6848327 C71.7402362,13.8224096 72.4281237,15.9422173 72.6329362,17.2421788 C72.8419862,18.5407365 72.6527112,20.5917558 72.6188112,22.369025 C72.5467737,26.0639481 73.4140487,29.0990635 73.4140487,29.0990635 C73.4140487,29.0990635 73.8250862,27.4579673 74.3999737,23.1762365 C74.7262612,20.7279288 77.9806612,12.4171596 73.3589612,6.82423654" id="Fill-21" fill="#FF9018"></path>
                        <path d="M87.5825939,44.8292257 L88,44.9372114 L87.5825939,45.0431204 C85.1321503,45.6536547 83.2195582,47.5683234 82.6069473,50.0166904 L82.4989617,50.4361731 L82.397206,50.0166904 C81.7825184,47.5683234 79.8678497,45.6536547 77.4174061,45.0431204 L77,44.9372114 L77.4174061,44.8292257 C79.8678497,44.2166148 81.7825184,42.3019462 82.397206,39.8535792 L82.4989617,39.4361731 L82.6069473,39.8535792 C83.2195582,42.3019462 85.1321503,44.2166148 87.5825939,44.8292257" id="Fill-23" fill="#2AD1FF"></path>
                        <g id="Group-27" transform="translate(86.998709, 4.142867)">
                            <mask id="mask-2" fill="white">
                                <use xlink:href="#path-1"></use>
                            </mask>
                            <g id="Clip-26"></g>
                            <path d="M9.62058291,6.76009864 L10.0012913,6.85621728 L9.62058291,6.95325133 C7.39398824,7.50982401 5.65517612,9.25094448 5.09601075,11.4781506 L5.00083367,11.8571327 L4.90565658,11.4781506 C4.34832154,9.25094448 2.6076791,7.50982401 0.382914751,6.95325133 L0.00129125,6.85621728 L0.382914751,6.76009864 C2.6076791,6.20444137 4.34832154,4.4633209 4.90565658,2.23611475 L5.00083367,1.85713269 L5.09601075,2.23611475 C5.65517612,4.4633209 7.39398824,6.20444137 9.62058291,6.76009864" id="Fill-25" fill="#FFCC2E" mask="url(#mask-2)"></path>
                        </g>
                        <path d="M9.619873,46.9051909 L10,47.000429 L9.619873,47.0965251 C7.39231165,47.6525097 5.65299468,49.3925354 5.09438819,51.6207636 L5,52 L4.90303758,51.6207636 C4.34614725,49.3925354 2.60768835,47.6525097 0.378410846,47.0965251 L0,47.000429 L0.378410846,46.9051909 C2.60768835,46.3466323 4.34614725,44.6066066 4.90303758,42.3818104 L5,42 L5.09438819,42.3818104 C5.65299468,44.6066066 7.39231165,46.3466323 9.619873,46.9051909" id="Fill-28" fill="#0071FB"></path>
                        <path d="M86.7323548,15.5767263 L86.9987087,15.6433235 L86.7323548,15.7099206 C85.1734546,16.0994684 83.9557064,17.3173753 83.5643851,18.877391 L83.4987087,19.1428673 L83.4302959,18.877391 C83.0407989,17.3173753 81.8230507,16.0994684 80.2641505,15.7099206 L79.9987087,15.6433235 L80.2641505,15.5767263 C81.8230507,15.1853539 83.0407989,13.967447 83.4302959,12.4083437 L83.4987087,12.1428673 L83.5643851,12.4083437 C83.9557064,13.967447 85.1734546,15.1853539 86.7323548,15.5767263" id="Fill-30" fill="#FF9018"></path>
                        <path d="M71.0567275,50.2159981 L69.863165,49.8580173 C69.863165,49.8580173 65.8982775,55.8805173 57.9374275,55.8805173 C50.1517275,55.8805173 45.9650775,49.8285365 45.9650775,49.8285365 L37.83049,52.2206904 C33.499765,53.4967865 30.5292775,57.4472096 30.5292775,61.9381135 L30.5292775,72.9737481 L84.09834,72.9737481 C85.23399,56.0223058 71.0567275,50.2159981 71.0567275,50.2159981" id="Fill-32" fill="#0071FB"></path>
                    </g>
                </g>
            </g>
        </g>
    </g>
</svg>