<?xml version="1.0" encoding="UTF-8"?>
<svg width="100px" height="98px" viewBox="0 0 100 98" version="1.1" xmlns="http://www.w3.org/2000/svg" xmlns:xlink="http://www.w3.org/1999/xlink">
    <!-- Generator: Sketch 55.2 (78181) - https://sketchapp.com -->
    <title>Group 56</title>
    <desc>Created with Sketch.</desc>
    <defs>
        <polygon id="path-1" points="0 90 90 90 90 0 0 0"></polygon>
    </defs>
    <g id="页面1" stroke="none" stroke-width="1" fill="none" fill-rule="evenodd">
        <g id="康波页面" transform="translate(-209.000000, -558.000000)">
            <g id="Group-10" transform="translate(167.000000, 558.000000)">
                <g id="Group-31" transform="translate(42.000000, 0.000000)">
                    <g id="Group-56" transform="translate(5.000000, 5.000000)">
                        <path d="M57.6456916,10.8 C57.4897654,10.8 57.3317321,10.7808645 57.1768595,10.7384337 C56.6521889,10.5961656 56.1159293,10.4613853 55.5817767,10.3365888 C54.8168956,10.1585457 54.3786166,9.5229152 54.605131,8.91806788 C54.8316454,8.31405253 55.6344545,7.96878204 56.4014428,8.14682514 C56.9735233,8.28160542 57.5508716,8.42553745 58.1134701,8.57778926 C58.8688692,8.78245561 59.2702738,9.4322297 59.0132063,10.0287573 C58.807763,10.5021522 58.2451645,10.8 57.6456916,10.8" id="Fill-1" fill="#0071FB"></path>
                        <path d="M64.7400687,13.9725664 C64.5105871,13.9725664 64.2801572,13.9116569 64.0686928,13.7830702 C63.2778346,13.2957942 62.4556836,12.8346223 61.6297394,12.4130899 C60.9868116,12.0863056 60.7250888,11.289648 61.0465527,10.6341458 C61.3670683,9.97961037 62.149392,9.71276876 62.7913716,10.0395531 C63.6799016,10.4920236 64.562742,10.9860673 65.4133412,11.5091156 C66.0287692,11.888108 66.2269578,12.7041019 65.8561838,13.3315665 C65.6115299,13.7434307 65.1819631,13.9725664 64.7400687,13.9725664 M70.8744346,18.7032042 C70.5548673,18.7032042 70.2352999,18.5842857 69.9849563,18.344515 C69.3107355,17.6986809 68.6014287,17.0741168 67.8778979,16.4862918 C67.3165214,16.0280203 67.2254873,15.1936569 67.6730713,14.621301 C68.1216035,14.0479782 68.9409098,13.9551637 69.5032346,14.4124684 C70.2789204,15.044767 71.0394338,15.7167051 71.7648612,16.4079796 C72.2883069,16.908791 72.3148585,17.7479886 71.823654,18.2826386 C71.5676208,18.5620489 71.2205536,18.7032042 70.8744346,18.7032042 M75.9059612,24.630762 C75.4944115,24.630762 75.0894998,24.4335313 74.8363114,24.0632402 C74.3090726,23.2897862 73.7429548,22.5279341 73.1569232,21.7979869 C72.7008048,21.2314319 72.7823561,20.3951348 73.338043,19.9310624 C73.8937299,19.4660232 74.7139844,19.5491695 75.1682063,20.1147577 C75.7988066,20.8978798 76.4057001,21.7167742 76.9727662,22.5463036 C77.3833676,23.147664 77.2382821,23.9752598 76.6484575,24.3938917 C76.4208724,24.5543834 76.1619944,24.630762 75.9059612,24.630762 M79.6080117,31.5 C79.1006866,31.5 78.6170684,31.1944857 78.4075004,30.6869065 C78.0509505,29.8177376 77.6545732,28.952436 77.230696,28.1142053 C76.9016459,27.4625703 77.1510412,26.6620455 77.7901759,26.3275266 C78.4293107,25.9901074 79.2135309,26.2472808 79.5444775,26.8979489 C79.9986994,27.798056 80.4244731,28.7291012 80.8075747,29.6611132 C81.0854181,30.3369186 80.7734369,31.1142398 80.1096471,31.3965505 C79.9465445,31.4671282 79.7758557,31.5 79.6080117,31.5" id="Fill-3" fill="#0071FB"></path>
                        <path d="M81.5337647,37.8 C80.9883607,37.8 80.4959339,37.3504188 80.3717416,36.6884778 C80.2709982,36.1539526 80.1598331,35.6163198 80.0417201,35.0921537 C79.8697616,34.3349097 80.2449439,33.5538401 80.8806695,33.3497675 C81.5155267,33.144659 82.1703588,33.5921684 82.3423174,34.3494123 C82.4699836,34.9139786 82.5898335,35.4920116 82.6983932,36.0679728 C82.841692,36.8324681 82.4378499,37.5938556 81.794308,37.7647794 C81.7074602,37.7875692 81.6206124,37.8 81.5337647,37.8" id="Fill-5" fill="#0071FB"></path>
                        <path d="M9.37750054,37.8 C9.29137378,37.8 9.20524702,37.7875736 9.11912026,37.7668629 C8.47534447,37.5970354 8.06819979,36.8400602 8.21000445,36.0727296 C8.31614046,35.4990439 8.43532598,34.9191449 8.56147123,34.354779 C8.73111485,33.5967682 9.38620021,33.146311 10.0221463,33.3482401 C10.6589623,33.5501692 11.0382681,34.3299262 10.8686244,35.0879369 C10.7511789,35.611917 10.641563,36.1493591 10.5415168,36.6836945 C10.4197213,37.3474717 9.92470995,37.8 9.37750054,37.8" id="Fill-7" fill="#0071FB"></path>
                        <path d="M23.0118957,16.2593992 C22.6079107,16.2593992 22.2087696,16.0809603 21.9471966,15.740218 C21.5063976,15.1640883 21.6245899,14.3487745 22.211676,13.9169144 C23.1853089,13.1974641 24.20835,12.5169286 25.2497982,11.8914434 C25.8746671,11.5165319 26.6932937,11.7092079 27.0759654,12.3214051 C27.4605746,12.9355006 27.2639104,13.7375264 26.6380728,14.1124379 C25.6692838,14.6952116 24.717933,15.3292391 23.809209,15.9974358 C23.5699181,16.1739764 23.2889693,16.2593992 23.0118957,16.2593992 M16.2381233,22.7031307 C15.9484554,22.7031307 15.6549123,22.6091655 15.4107775,22.4174387 C14.8372544,21.9694432 14.7423131,21.1493837 15.2005503,20.5874911 C15.9610496,19.6535344 16.7777387,18.7452046 17.6263979,17.8833828 C18.1359808,17.3679982 18.9768897,17.3528119 19.5068172,17.8530102 C20.0328696,18.3532086 20.0483703,19.1770646 19.5378185,19.6943475 C18.7472867,20.4954242 17.9867873,21.343958 17.2795714,22.2124238 C17.0170296,22.5351324 16.6285452,22.7031307 16.2381233,22.7031307 M11.3292696,30.6 C11.1481061,30.6 10.9640362,30.5648817 10.7877166,30.487052 C10.1173146,30.194716 9.81602126,29.4240119 10.1163458,28.7662558 C10.6143034,27.6747414 11.1703882,26.5936676 11.772975,25.553407 C12.1343332,24.9269726 12.9452096,24.7077206 13.5855791,25.0617509 C14.224011,25.4157812 14.4497389,26.211163 14.086443,26.8366482 C13.526483,27.8057232 13.0081809,28.8127638 12.544131,29.8283468 C12.3232471,30.3124097 11.8388526,30.6 11.3292696,30.6" id="Fill-9" fill="#0071FB"></path>
                        <path d="M31.4572796,11.7 C30.8840737,11.7 30.341651,11.3538871 30.1102456,10.7824236 C29.8034743,10.0276603 30.1590743,9.16183906 30.902119,8.8513079 C31.4583411,8.61948776 32.0262396,8.39629349 32.5920151,8.18927271 C33.3467363,7.91001032 34.1831924,8.30787836 34.458119,9.07665863 C34.731984,9.84436067 34.3402933,10.6929302 33.5834491,10.9711144 C33.0569488,11.1641181 32.5283256,11.3722171 32.0124402,11.5878637 C31.8298635,11.6633401 31.6419793,11.7 31.4572796,11.7" id="Fill-11" fill="#0071FB"></path>
                        <path d="M9.37750054,37.8 C9.29137378,37.8 9.20524702,37.7875736 9.11912026,37.7668629 C8.47534447,37.5970354 8.06819979,36.8400602 8.21000445,36.0727296 C8.31614046,35.4990439 8.43532598,34.9191449 8.56147123,34.354779 C8.73111485,33.5967682 9.38620021,33.146311 10.0221463,33.3482401 C10.6589623,33.5501692 11.0382681,34.3299262 10.8686244,35.0879369 C10.7511789,35.611917 10.641563,36.1493591 10.5415168,36.6836945 C10.4197213,37.3474717 9.92470995,37.8 9.37750054,37.8" id="Fill-13" fill="#0071FB"></path>
                        <path d="M23.0118957,16.2593992 C22.6079107,16.2593992 22.2087696,16.0809603 21.9471966,15.740218 C21.5063976,15.1640883 21.6245899,14.3487745 22.211676,13.9169144 C23.1853089,13.1974641 24.20835,12.5169286 25.2497982,11.8914434 C25.8746671,11.5165319 26.6932937,11.7092079 27.0759654,12.3214051 C27.4605746,12.9355006 27.2639104,13.7375264 26.6380728,14.1124379 C25.6692838,14.6952116 24.717933,15.3292391 23.809209,15.9974358 C23.5699181,16.1739764 23.2889693,16.2593992 23.0118957,16.2593992 M16.2381233,22.7031307 C15.9484554,22.7031307 15.6549123,22.6091655 15.4107775,22.4174387 C14.8372544,21.9694432 14.7423131,21.1493837 15.2005503,20.5874911 C15.9610496,19.6535344 16.7777387,18.7452046 17.6263979,17.8833828 C18.1359808,17.3679982 18.9768897,17.3528119 19.5068172,17.8530102 C20.0328696,18.3532086 20.0483703,19.1770646 19.5378185,19.6943475 C18.7472867,20.4954242 17.9867873,21.343958 17.2795714,22.2124238 C17.0170296,22.5351324 16.6285452,22.7031307 16.2381233,22.7031307 M11.3292696,30.6 C11.1481061,30.6 10.9640362,30.5648817 10.7877166,30.487052 C10.1173146,30.194716 9.81602126,29.4240119 10.1163458,28.7662558 C10.6143034,27.6747414 11.1703882,26.5936676 11.772975,25.553407 C12.1343332,24.9269726 12.9452096,24.7077206 13.5855791,25.0617509 C14.224011,25.4157812 14.4497389,26.211163 14.086443,26.8366482 C13.526483,27.8057232 13.0081809,28.8127638 12.544131,29.8283468 C12.3232471,30.3124097 11.8388526,30.6 11.3292696,30.6" id="Fill-15" fill="#0071FB"></path>
                        <path d="M31.4572796,11.7 C30.8840737,11.7 30.341651,11.3538871 30.1102456,10.7824236 C29.8034743,10.0276603 30.1590743,9.16183906 30.902119,8.8513079 C31.4583411,8.61948776 32.0262396,8.39629349 32.5920151,8.18927271 C33.3467363,7.91001032 34.1831924,8.30787836 34.458119,9.07665863 C34.731984,9.84436067 34.3402933,10.6929302 33.5834491,10.9711144 C33.0569488,11.1641181 32.5283256,11.3722171 32.0124402,11.5878637 C31.8298635,11.6633401 31.6419793,11.7 31.4572796,11.7" id="Fill-17" fill="#0071FB"></path>
                        <path d="M34.0047037,80.1 C33.8589027,80.1 33.7099322,80.0827183 33.5641312,80.0465092 C32.9946624,79.9041413 32.4199108,79.7510752 31.8588942,79.5897797 C31.1066458,79.3741705 30.7220694,78.725697 30.9988799,78.1405896 C31.2746339,77.5546593 32.1071784,77.2551106 32.8604832,77.4690739 C33.3824083,77.6204941 33.9170118,77.762862 34.4452761,77.8945318 C35.2091462,78.08463 35.628588,78.7207594 35.3855865,79.3140962 C35.1880156,79.7938678 34.6196033,80.1 34.0047037,80.1" id="Fill-19" fill="#0071FB"></path>
                        <path d="M15.7160379,67.4041323 C15.3198876,67.4041323 14.9275101,67.2153571 14.6737853,66.8564876 C14.0550362,65.9853688 13.4655268,65.0768882 12.9203485,64.1585756 C12.5449489,63.524409 12.7335919,62.6936015 13.3419656,62.3013031 C13.9512825,61.9099878 14.7482992,62.1066287 15.1236988,62.7398121 C15.6302053,63.5951997 16.1782132,64.439772 16.7554608,65.2528817 C17.1808508,65.851653 17.0591761,66.6952421 16.4838149,67.1396504 C16.251784,67.3185935 15.9839109,67.4041323 15.7160379,67.4041323 M21.1763097,73.5491578 C20.8744809,73.5491578 20.5735953,73.4419886 20.3302458,73.2207677 C19.5445477,72.5138439 18.7777139,71.7616928 18.0514383,70.9888944 C17.5524775,70.4559978 17.5609665,69.6025766 18.0712458,69.0804953 C18.5834116,68.5603803 19.4021222,68.5692291 19.901083,69.1011425 C20.5783114,69.8218311 21.291382,70.5218725 22.0223736,71.1816024 C22.563779,71.6682884 22.6222584,72.5207264 22.1553669,73.0841023 C21.8988124,73.3918452 21.5375611,73.5491578 21.1763097,73.5491578 M27.7957929,78.3 C27.5892288,78.3 27.3788918,78.2488734 27.1845895,78.1397377 C26.2687277,77.6284716 25.3641845,77.0709949 24.493597,76.4810724 C23.892769,76.0759924 23.7229903,75.2412521 24.1097085,74.6159343 C24.5001995,73.9906165 25.3019323,73.8126565 25.9008739,74.2187198 C26.7120388,74.7663645 27.555273,75.2864795 28.4079394,75.761367 C29.0380071,76.1133541 29.274754,76.9313799 28.9370831,77.587177 C28.7041089,78.0414173 28.2560818,78.3 27.7957929,78.3" id="Fill-21" fill="#0071FB"></path>
                        <path d="M11.2489471,60.3 C10.6812652,60.3 10.139436,59.9762772 9.89598982,59.4342788 C9.64931211,58.8859536 9.41232915,58.3260292 9.19258132,57.7734861 C8.89527543,57.0269203 9.27229377,56.1896698 10.0327936,55.8986357 C10.7932935,55.6097105 11.6496637,55.9766666 11.9458924,56.7232325 C12.1527139,57.2378146 12.3724617,57.7587235 12.6019043,58.2701422 C12.9304489,59.000891 12.5911324,59.8539585 11.8424817,60.1766268 C11.6496637,60.2599301 11.4482282,60.3 11.2489471,60.3" id="Fill-23" fill="#0071FB"></path>
                        <path d="M79.6513687,61.2 C79.4469046,61.2 79.239229,61.1587695 79.0411879,61.0689081 C78.3036184,60.7358926 77.9781887,59.875338 78.3143234,59.1458753 C78.5487613,58.6415945 78.7757057,58.1225131 78.9887337,57.6044888 C79.2938241,56.863397 80.1491478,56.5050088 80.9017041,56.8073658 C81.6531899,57.1086656 82.0150165,57.9544195 81.7099261,58.6965685 C81.4819111,59.2537089 81.2378388,59.8097921 80.988414,60.3531889 C80.7400597,60.8870711 80.2080249,61.2 79.6513687,61.2" id="Fill-25" fill="#0071FB"></path>
                        <path d="M74.9243748,68.34672 C74.6351775,68.34672 74.345,68.2541235 74.0999176,68.0640571 C73.5136804,67.6098471 73.4087852,66.769656 73.8646385,66.1867857 C74.514597,65.3573163 75.1351456,64.4917831 75.7056975,63.6116294 C76.1115539,62.9907457 76.9438538,62.8133504 77.5673434,63.2149266 C78.1918134,63.6165029 78.369253,64.4449975 77.9653572,65.0649065 C77.3506906,66.0103651 76.6840664,66.9412032 75.9860717,67.8301292 C75.7213827,68.16835 75.3263099,68.34672 74.9243748,68.34672 M68.7728064,74.5604299 C68.3787139,74.5604299 67.9885427,74.3888828 67.7228734,74.060409 C67.2572168,73.4853363 67.3503482,72.6422211 67.9287426,72.1802135 C68.7512392,71.523266 69.5541291,70.8214823 70.3168256,70.0943564 C70.8540462,69.5836138 71.7049723,69.6011584 72.2176847,70.1352938 C72.7333381,70.6674797 72.7156921,71.5144937 72.1784715,72.026211 C71.3598963,72.8059706 70.4962259,73.5594134 69.6139292,74.2650959 C69.3668862,74.4639347 69.068866,74.5604299 68.7728064,74.5604299 M61.3468096,79.2 C60.8429202,79.2 60.3615783,78.9183118 60.1312009,78.4377849 C59.8116134,77.7701157 60.095909,76.9728114 60.7664545,76.6540847 C61.7203152,76.2037734 62.6633923,75.7047272 63.5741185,75.1725413 C64.2142737,74.7972819 65.0377506,75.0097664 65.4151775,75.6462453 C65.7926044,76.2827241 65.5779122,77.1034212 64.937757,77.4786805 C63.9613487,78.0498545 62.9467075,78.5849646 61.9242237,79.0693903 C61.7379611,79.1580879 61.5409149,79.2 61.3468096,79.2" id="Fill-27" fill="#0071FB"></path>
                        <path d="M55.0768187,81 C54.4364802,81 53.8517776,80.6533696 53.6827702,80.131733 C53.4833205,79.5120254 53.945204,78.8779453 54.71466,78.7164662 C55.2521245,78.6040227 55.7906388,78.4814339 56.3176059,78.3512361 C57.0776143,78.1635484 57.8848608,78.5076425 58.117902,79.1197412 C58.351993,79.7318398 57.9226513,80.3811378 57.1636926,80.5688255 C56.5957858,80.710014 56.0173816,80.8419027 55.4400272,80.9628006 C55.3182579,80.9881638 55.1964886,81 55.0768187,81" id="Fill-29" fill="#0071FB"></path>
                        <mask id="mask-2" fill="white">
                            <use xlink:href="#path-1"></use>
                        </mask>
                        <g id="Clip-32"></g>
                        <polygon id="Fill-31" fill="#FFDB58" mask="url(#mask-2)" points="73.6363636 54.9 86.8438964 54.9 86.8438964 42.3 73.6363636 42.3"></polygon>
                        <polygon id="Fill-33" fill="#FF9018" mask="url(#mask-2)" points="89.9848157 38.7 86.8438964 42.3 86.8438964 54.9 90 50.24032 90 38.7"></polygon>
                        <polygon id="Fill-34" fill="#FFC400" mask="url(#mask-2)" points="90 38.7 76.7924672 38.7 73.6363636 42.3 86.8438964 42.3"></polygon>
                        <polygon id="Fill-35" fill="#2AD1FF" mask="url(#mask-2)" points="30.9090909 57.6 52.7272727 57.6 52.7272727 36 30.9090909 36"></polygon>
                        <polygon id="Fill-36" fill="#0092FB" mask="url(#mask-2)" points="58.1583122 29.7 52.7363636 35.7575744 52.7363636 57.6 58.1909091 49.5745453 58.1909091 29.7"></polygon>
                        <polygon id="Fill-37" fill="#00B2FB" mask="url(#mask-2)" points="58.1818182 29.7 36.1671072 29.7 30.9090909 36 52.9247596 36"></polygon>
                        <polygon id="Fill-38" fill="#0071FB" mask="url(#mask-2)" points="16.3636364 47.7 30.9090909 47.7 30.9090909 45 16.3636364 45"></polygon>
                        <polygon id="Fill-39" fill="#0071FB" mask="url(#mask-2)" points="43.6363636 29.7 46.3636364 29.7 46.3636364 16.2 43.6363636 16.2"></polygon>
                        <polygon id="Fill-40" fill="#0071FB" mask="url(#mask-2)" points="43.6363636 72 46.3636364 72 46.3636364 57.6 43.6363636 57.6"></polygon>
                        <polygon id="Fill-41" fill="#0071FB" mask="url(#mask-2)" points="58.1818182 47.7 73.6363636 47.7 73.6363636 45 58.1818182 45"></polygon>
                        <polygon id="Fill-42" fill="#FFDB58" mask="url(#mask-2)" points="37.2727273 16.2 50 16.2 50 3.6 37.2727273 3.6"></polygon>
                        <polygon id="Fill-43" fill="#FF9018" mask="url(#mask-2)" points="52.7120884 0 50 3.51714868 50 16.2 52.7272727 11.54032 52.7272727 0"></polygon>
                        <polygon id="Fill-44" fill="#FFC400" mask="url(#mask-2)" points="52.7272727 0 40.1611649 0 37.2727273 3.6 50 3.6"></polygon>
                        <polygon id="Fill-45" fill="#FFDB58" mask="url(#mask-2)" points="37.2727273 88.2 50 88.2 50 75.6 37.2727273 75.6"></polygon>
                        <polygon id="Fill-46" fill="#FF9018" mask="url(#mask-2)" points="52.7120884 72 50 75.5171487 50 88.2 52.7272727 83.54032 52.7272727 72"></polygon>
                        <polygon id="Fill-47" fill="#FFC400" mask="url(#mask-2)" points="52.7272727 72 40.0146252 72 37.2727273 75.6 50 75.6"></polygon>
                        <polygon id="Fill-48" fill="#FFDB58" mask="url(#mask-2)" points="0 54.9 13.2075328 54.9 13.2075328 42.3 0 42.3"></polygon>
                        <polygon id="Fill-49" fill="#FF9018" mask="url(#mask-2)" points="16.348452 38.7 13.2075328 42.3 13.2075328 54.9 16.3636364 50.24032 16.3636364 38.7"></polygon>
                        <polygon id="Fill-50" fill="#FFC400" mask="url(#mask-2)" points="16.3636364 38.7 3.1561036 38.7 0 42.3 13.2075328 42.3"></polygon>
                        <path d="M82.4666268,8.43947368 L82.9181818,8.55098684 L82.4666268,8.6625 C79.8350478,9.31480263 77.7816188,11.3496711 77.1217305,13.9549342 L77.0070973,14.4 L76.8974482,13.9549342 C76.236563,11.3496711 74.1801435,9.31480263 71.5485646,8.6625 L71.1,8.55098684 L71.5485646,8.43947368 C74.1801435,7.78618421 76.236563,5.75131579 76.8974482,3.14605263 L77.0070973,2.7 L77.1217305,3.14605263 C77.7816188,5.75131579 79.8350478,7.78618421 82.4666268,8.43947368" id="Fill-51" fill="#0071FB" mask="url(#mask-2)"></path>
                        <path d="M86.1971353,17.9305943 L86.4727273,17.9976067 L86.1971353,18.0684483 C84.5764611,18.4695652 83.3135729,19.7207818 82.9045364,21.3252493 L82.8358801,21.6 L82.7681909,21.3252493 C82.3620553,19.7207818 81.0962662,18.4695652 79.473658,18.0684483 L79.2,17.9976067 L79.473658,17.9305943 C81.0962662,17.5285201 82.3620553,16.2753889 82.7681909,14.6718787 L82.8358801,14.4 L82.9045364,14.6718787 C83.3135729,16.2753889 84.5764611,17.5285201 86.1971353,17.9305943" id="Fill-52" fill="#0071FB" mask="url(#mask-2)"></path>
                        <path d="M21.2930663,78.1965174 L21.7090909,78.3 L21.2930663,78.4034826 C18.864246,79.0044776 16.9660079,80.8830846 16.360059,83.2890547 L16.2535406,83.7 L16.149032,83.2890547 C15.543083,80.8830846 13.6458498,79.0044776 11.2150198,78.4034826 L10.8,78.3 L11.2150198,78.1965174 C13.6458498,77.5935323 15.543083,75.7159204 16.149032,73.3099502 L16.2535406,72.9 L16.360059,73.3099502 C16.9660079,75.7159204 18.864246,77.5935323 21.2930663,78.1965174" id="Fill-53" fill="#FFD140" mask="url(#mask-2)"></path>
                        <path d="M29.6879815,30.072785 L30,30.148486 L29.6879815,30.227215 C27.8658343,30.6794019 26.4433971,32.0864299 25.9865857,33.8911402 L25.9080712,34.2 L25.8305765,33.8911402 C25.3747847,32.0864299 23.9513278,30.6794019 22.128161,30.227215 L21.8181818,30.148486 L22.128161,30.072785 C23.9513278,29.6216075 25.3747847,28.2115514 25.8305765,26.4078505 L25.9080712,26.1 L25.9865857,26.4078505 C26.4433971,28.2115514 27.8658343,29.6216075 29.6879815,30.072785" id="Fill-54" fill="#2AD1FF" mask="url(#mask-2)"></path>
                        <path d="M36.1890824,23.8067895 L36.3636364,23.8504365 L36.1890824,23.8932105 C35.1779039,24.1437439 34.3880034,24.9267701 34.1332252,25.928904 L34.0909091,26.1 L34.0477114,25.928904 C33.7929332,24.9267701 33.0030327,24.1437439 31.9909726,23.8932105 L31.8181818,23.8504365 L31.9909726,23.8067895 C33.0030327,23.5545102 33.7929332,22.7723569 34.0477114,21.7702231 L34.0909091,21.6 L34.1332252,21.7702231 C34.3880034,22.7723569 35.1779039,23.5545102 36.1890824,23.8067895" id="Fill-55" fill="#2AD1FF" mask="url(#mask-2)"></path>
                    </g>
                </g>
            </g>
        </g>
    </g>
</svg>