<?xml version="1.0" encoding="UTF-8"?>
<svg width="164px" height="36px" viewBox="0 0 164 36" version="1.1" xmlns="http://www.w3.org/2000/svg" xmlns:xlink="http://www.w3.org/1999/xlink">
    <!-- Generator: Sketch 55.2 (78181) - https://sketchapp.com -->
    <title>logo</title>
    <desc>Created with Sketch.</desc>
    <defs>
        <linearGradient x1="83.2008503%" y1="17.5543878%" x2="0%" y2="122.330928%" id="linearGradient-1">
            <stop stop-color="#2AD1FF" offset="0%"></stop>
            <stop stop-color="#0071FB" offset="100%"></stop>
        </linearGradient>
        <polygon id="path-2" points="0.302110746 0.183530323 19.8731926 0.183530323 19.8731926 20.5573344 0.302110746 20.5573344"></polygon>
    </defs>
    <g id="页面1" stroke="none" stroke-width="1" fill="none" fill-rule="evenodd">
        <g id="康波页面" transform="translate(-60.000000, -18.000000)">
            <g id="Group-29" transform="translate(60.000000, 18.000000)">
                <g id="logo">
                    <path d="M8.8817842e-15,0.219446809 L0.000396126761,0.219446809 C9.5003081,0.219446809 17.2018046,7.66570213 17.2018046,16.8502979 L17.2018046,36 C7.70149648,36 8.8817842e-15,28.5541277 8.8817842e-15,19.3695319 L0.000396126761,19.3691489 L8.8817842e-15,19.3691489 L8.8817842e-15,0.219446809 Z M18.8199,35.9227045 L18.8199,17.7827923 C29.4709986,17.7827923 38.1052627,25.9043923 38.1052627,35.9223329 L18.8199,35.9227045 Z M18.8217115,13.8709406 L18.8217115,0.210499151 C26.9998221,0.210499151 33.6292077,6.32634295 33.6292077,13.8709406 L18.8217115,13.8709406 Z" id="Combined-Shape" fill="url(#linearGradient-1)"></path>
                    <g id="Group-23" transform="translate(48.802817, 9.290323)">
                        <path d="M32.542888,12.3793464 C32.506199,12.3801065 32.4698922,12.3808666 32.4328211,12.3816267 C32.0407077,12.3892279 31.7009526,12.3926484 31.4154665,12.3926484 C30.149697,12.3926484 29.1331068,12.3892279 28.3641671,12.3816267 L27.875363,12.3763059 C27.3166205,12.3713652 26.522075,12.363764 25.8100796,12.3538825 C26.0069007,11.7628913 26.1941673,11.2311892 26.3799052,10.7333124 C27.3017156,8.26825196 28.2476032,6.29460739 29.194255,4.86330651 C29.715162,5.6557288 30.2505917,6.65832352 30.78755,7.84638686 C31.4097338,9.22485959 31.9998148,10.7492748 32.542888,12.3793464 M35.837634,9.75200094 C34.6330128,6.68720798 32.9888883,3.6307763 30.9499752,0.666698886 L30.7435997,0.369493021 L27.6429995,0.369493021 L27.4354775,0.669359296 C25.4408969,3.57300739 23.8086198,6.62943906 22.5837433,9.75200094 C21.3554271,12.882164 20.4592225,16.1825933 19.9207354,19.5616948 L19.7907953,20.3715998 L23.7092539,20.3715998 L23.8223782,19.8121534 C24.0895198,18.4849886 24.4036691,17.1475622 24.7568004,15.8359798 L33.5782049,15.8359798 C33.9550312,17.171886 34.2871428,18.5119728 34.5665141,19.8205147 L34.6842245,20.3715998 L38.5923643,20.3715998 L38.4662459,19.5635951 C37.925848,16.1164631 37.0414909,12.8156537 35.837634,9.75200094" id="Fill-10" fill="#494D61"></path>
                        <path d="M68.988871,10.0218046 L71.6518789,10.0218046 L71.6518789,16.8959254 C68.8791863,17.4219266 66.5605198,16.9305107 64.9427655,15.4760263 C63.6368674,14.3035453 62.9753194,12.577699 62.9753194,10.3467547 C62.9753194,8.04283918 63.6192873,6.30711132 64.8904072,5.18783859 C66.6499491,3.63947965 69.3955071,3.12868082 73.0437667,3.66494358 L73.8348726,3.7823817 L73.8348726,0.7510339 L73.4526958,0.558724223 C73.1129407,0.38769783 72.5603131,0.287362346 71.7130271,0.242135367 C70.964725,0.203369384 70.1667399,0.183606334 69.3408559,0.183606334 C65.9971912,0.183606334 63.3383873,1.21204504 61.4378222,3.24003801 C59.7019752,5.10194534 58.8214399,7.49327437 58.8214399,10.3467547 C58.8214399,13.199475 59.6947139,15.5904239 61.4156559,17.4534714 C63.3288329,19.5130093 65.9952803,20.5574104 69.3408559,20.5574104 C70.2267416,20.5574104 71.3434622,20.4935606 72.6592969,20.3685213 C74.4872484,20.1940744 75.04408,19.9660392 75.3498214,19.6551512 L75.5519929,19.4510597 L75.5519929,6.71833478 L68.988871,6.71833478 L68.988871,10.0218046 Z" id="Fill-12" fill="#494D61"></path>
                        <path d="M89.2949935,6.85420575 C88.807336,7.39654944 88.1003089,7.67171191 87.1937856,7.67171191 L82.3623067,7.67171191 L82.3623067,3.6495512 L86.9186183,3.6495512 C87.7261579,3.6495512 88.4438858,3.85060223 89.0526935,4.24738346 C89.5793331,4.59133654 89.8246906,5.04398639 89.8246906,5.6726034 C89.8246906,6.06444387 89.646214,6.46236528 89.2949935,6.85420575 M89.0221193,16.6969647 C88.5531884,16.9732673 87.921068,17.1146491 87.1337838,17.1169295 C86.798997,17.1465741 86.414145,17.1648169 85.9895466,17.172038 C85.5611264,17.1803993 84.6844128,17.1838198 83.229848,17.1838198 C82.9298392,17.1838198 82.6386205,17.1788791 82.3623067,17.1686175 L82.3623067,11.1150433 L86.5754236,11.1150433 C87.6164731,11.1150433 88.4801926,11.3837448 89.1421228,11.9139266 C89.8330985,12.4767934 90.1690318,13.2350104 90.1690318,14.2307641 C90.1690318,15.4496122 89.8044352,16.2332931 89.0221193,16.6969647 M91.8441127,9.61837232 C92.2775011,9.31850604 92.6034979,9.03954299 92.8373901,8.76894123 C93.563526,7.95751601 93.9323266,6.91577525 93.9323266,5.6726034 C93.9323266,4.25004387 93.284537,2.98900927 92.0088309,1.92446499 C90.7713425,0.892605748 89.3290073,0.369645044 87.7208074,0.369645044 L78.3471575,0.369645044 L78.3471575,20.3713717 L86.5754236,20.3713717 C88.6357386,20.3713717 90.3857261,19.9289835 91.7753209,19.0556087 C93.4798293,17.9789025 94.3446954,16.4104005 94.3446954,14.3938093 C94.3446954,13.0240779 93.9132178,11.8018093 93.0628744,10.7604486 C92.7124183,10.3347829 92.303107,9.9513037 91.8441127,9.61837232" id="Fill-14" fill="#494D61"></path>
                        <g id="Group-18" transform="translate(95.162019, 0.000000)">
                            <mask id="mask-3" fill="white">
                                <use xlink:href="#path-2"></use>
                            </mask>
                            <g id="Clip-17"></g>
                            <path d="M14.2607355,15.2262517 L14.3639232,15.3045438 L14.2599712,15.2270118 C13.2579036,16.5412547 11.8541683,17.2071174 10.0869829,17.2071174 C8.26361746,17.2071174 6.83809807,16.5347937 5.85017108,15.208389 C4.93906164,13.9922013 4.47739209,12.3761919 4.47739209,10.4048277 C4.47739209,8.30956434 4.98989115,6.62856493 6.00113091,5.4081966 C6.98026783,4.22583413 8.35533989,3.62648164 10.0869829,3.62648164 C11.8193902,3.62648164 13.1944623,4.22583413 14.1747457,5.4081966 C15.184839,6.62780481 15.6965737,8.30918428 15.6965737,10.4048277 C15.6965737,12.3583291 15.2135022,13.9804195 14.2607355,15.2262517 M16.9730441,3.18371331 C15.0441979,1.1929661 12.7270601,0.183530323 10.0869829,0.183530323 C7.16638792,0.183530323 4.76096726,1.18992563 2.93683748,3.17421185 C1.1883787,5.08210628 0.302110746,7.51106111 0.302110746,10.3934259 C0.302110746,13.0952629 1.10429981,15.4216019 2.68651169,17.3085931 C4.48083168,19.4642857 6.97147776,20.5573344 10.0869829,20.5573344 C13.2189216,20.5573344 15.7168291,19.4642857 17.5103847,17.3093532 C19.0776917,15.4368042 19.8733837,13.1100852 19.8733837,10.3934259 C19.8733837,7.59733443 18.8976864,5.17142006 16.9730441,3.18371331" id="Fill-16" fill="#494D61" mask="url(#mask-3)"></path>
                        </g>
                        <polygon id="Fill-19" fill="#494D61" points="53.0307738 13.1706665 44.1623616 0.425399648 44.1237617 0.369531026 40.4732091 0.369531026 40.4732091 20.3716378 44.1852922 20.3716378 44.1852922 6.95784774 53.3254321 20.314629 53.3644141 20.3716378 56.743239 20.3716378 56.743239 0.369531026 53.0307738 0.369531026"></polygon>
                        <path d="M10.9888819,8.33046757 C15.5780607,4.71877021 16.9867643,0.580691613 17.0005226,0.538885161 L17.0567026,0.369379003 L12.7950493,0.369379003 L12.7564495,0.427147918 C8.84639883,6.28385173 4.89469091,7.55210745 4.08141872,7.7584793 L4.08141872,0.369379003 L0.0425744935,0.369379003 L0.0425744935,20.3714857 L4.08141872,20.3714857 L4.08141872,12.0675843 C5.23406389,11.663962 6.3500201,11.1835679 7.40138842,10.6378036 C8.31593746,11.1356805 12.1870061,13.5984605 13.7172419,20.2707702 L13.7397903,20.3714857 L17.7113715,20.3714857 L17.69532,20.2278236 C17.68653,20.1510517 16.76128,12.5430377 10.9888819,8.33046757" id="Fill-21" fill="#494D61"></path>
                    </g>
                </g>
            </g>
        </g>
    </g>
</svg>